<?xml version="1.0" encoding="utf-8"?>
<!-- Generator: Adobe Illustrator 24.3.0, SVG Export Plug-In . SVG Version: 6.00 Build 0)  -->
<svg version="1.1" id="Layer_1" xmlns="http://www.w3.org/2000/svg" xmlns:xlink="http://www.w3.org/1999/xlink" x="0px" y="0px"
	 viewBox="0 0 192 79" style="enable-background:new 0 0 192 79;" xml:space="preserve">
<style type="text/css">
	.st0{clip-path:url(#SVGID_2_);}
	.st1{fill:url(#SVGID_3_);}
	.st2{display:none;fill:url(#SVGID_4_);}
	.st3{fill:url(#SVGID_5_);}
	.st4{fill:url(#SVGID_6_);}
	.st5{fill:url(#SVGID_7_);}
	.st6{fill:url(#SVGID_8_);}
	.st7{fill:url(#SVGID_9_);}
	.st8{fill:url(#SVGID_10_);}
	.st9{fill:#1269BB;}
	.st10{fill:#F7A41E;}
	.st11{clip-path:url(#SVGID_2_);fill:url(#SVGID_11_);}
	.st12{fill:url(#SVGID_12_);}
	.st13{display:none;fill:url(#SVGID_13_);}
	.st14{fill:url(#SVGID_14_);}
	.st15{fill:url(#SVGID_15_);}
	.st16{fill:url(#SVGID_16_);}
</style>
<g>
	<defs>
		<rect id="SVGID_1_" x="4.6" y="2.4" width="184.6" height="75.6"/>
	</defs>
	<clipPath id="SVGID_2_">
		<use xlink:href="#SVGID_1_"  style="overflow:visible;"/>
	</clipPath>
	<g class="st0">
		<linearGradient id="SVGID_3_" gradientUnits="userSpaceOnUse" x1="27.6916" y1="33.2495" x2="36.397" y2="33.2495">
			<stop  offset="0.2572" style="stop-color:#239AD9"/>
			<stop  offset="0.5843" style="stop-color:#166DB5"/>
		</linearGradient>
		<path class="st1" d="M28.4,38.4l-0.7-5.7c0-0.1,0-0.2,0.1-0.3s0.1-0.2,0.2-0.2l6-4.4c0.6-0.5,1.9-0.2,1.9,0.4l0.5,6.6
			c0,0.1,0,0.2-0.1,0.3c-0.1,0.1-0.1,0.2-0.2,0.2l-5.8,3.5C29.6,39.2,28.5,38.9,28.4,38.4z"/>
		<linearGradient id="SVGID_4_" gradientUnits="userSpaceOnUse" x1="32.2367" y1="24.0911" x2="42.5487" y2="24.0911">
			<stop  offset="0" style="stop-color:#FFFFFF"/>
			<stop  offset="1" style="stop-color:#000000"/>
		</linearGradient>
		<path class="st2" d="M32.8,46.2L32.2,8.4c0,0,0-0.1,0-0.1c0.2-1.2,0.6-2.4,1.4-3.4c0.7-1,1.7-1.9,2.9-2.5c1.5-0.8,3.3-1.2,5-1.2
			c0.1,0,0.3,0,0.4,0c0.1,0,0.2,0.1,0.3,0.2c0.1,0.1,0.2,0.2,0.2,0.3c0.1,0.1,0.1,0.2,0.1,0.3c-0.1,11.6-0.1,23.1-0.2,34.7l0.2,3.1
			c0,0.1,0,0.2-0.1,0.3c0,0.1-0.1,0.2-0.2,0.3l-7.8,6.3c-0.1,0.1-0.3,0.2-0.5,0.2c-0.2,0-0.4,0-0.5,0c-0.2-0.1-0.3-0.2-0.4-0.3
			C32.9,46.5,32.8,46.4,32.8,46.2z"/>
		<linearGradient id="SVGID_5_" gradientUnits="userSpaceOnUse" x1="5.8723" y1="53.1349" x2="16.0592" y2="53.1349">
			<stop  offset="1" style="stop-color:#F2B620"/>
			<stop  offset="1" style="stop-color:#C69D33"/>
		</linearGradient>
		<path class="st3" d="M15.2,68.6c0,0-0.2-0.2-0.4-0.6c-0.1-0.1-0.1-0.2-0.2-0.5c-0.3-0.8-0.5-1.6-0.5-1.6c-0.3-1.7,0-3.4,0.1-3.6
			c0.1-0.7,0.3-1.7,1-2.8c0.3-0.5,0.6-0.9,0.9-1.2c-1-0.9-2.2-2.3-3.1-4.1c-1-1.9-1.3-3.4-1.4-3.7c-0.3-1.5-0.3-3-0.3-3.2
			c0,0,0,0,0,0c0-0.9,0.1-1.7,0.4-3.3c0.1-1,0.3-1.9,0.5-2.7c0.2-1.1,0.4-1.6,0.5-1.9c0.2-0.7,0.5-1.2,0.7-1.6
			c-0.1,0-0.2,0.1-0.2,0.2c-0.2,0.2-0.4,0.3-0.5,0.4c-0.4,0.3-0.7,0.4-0.9,0.6c-0.5,0.3-1,0.7-1.2,0.8c-0.7,0.5-1.6,1.3-2.3,2.4
			c-0.7,1-1,1.9-1.3,3c-0.3,0.9-0.9,2.6-0.9,4.9c0,0.8-0.1,3.5,0.9,6.9C7.1,58,7.6,59.9,8.9,62c0.9,1.5,2,2.7,2.1,2.8
			c0.3,0.4,0.6,0.7,0.9,0.9c0,0,0.3,0.3,0.5,0.6C13.4,67.3,15.1,68.7,15.2,68.6z"/>
		<linearGradient id="SVGID_6_" gradientUnits="userSpaceOnUse" x1="19.2672" y1="35.0981" x2="30.224" y2="35.0981">
			<stop  offset="0.4087" style="stop-color:#239AD9"/>
			<stop  offset="0.5961" style="stop-color:#166DB5"/>
		</linearGradient>
		<path class="st4" d="M19.8,56.3l-0.6-36.2V20c0.2-1.2,0.7-2.3,1.5-3.3s1.8-1.8,3-2.3c1.7-0.8,3.6-1.2,5.5-1.2c0.1,0,0.2,0,0.3,0
			c0.1,0,0.2,0.1,0.3,0.2c0.1,0.1,0.2,0.2,0.2,0.2c0.1,0.1,0.1,0.2,0.1,0.3C30.1,26,30,38,30,50c0,0.1,0,0.2-0.1,0.3
			c0,0.1-0.1,0.2-0.2,0.2l-8.3,6.3c-0.1,0.1-0.3,0.2-0.4,0.2c-0.2,0-0.3,0-0.5,0c-0.2-0.1-0.3-0.1-0.4-0.3
			C19.9,56.6,19.9,56.4,19.8,56.3z"/>
		<linearGradient id="SVGID_7_" gradientUnits="userSpaceOnUse" x1="6.8949" y1="53.5425" x2="15.7392" y2="53.5425">
			<stop  offset="1" style="stop-color:#F2B620"/>
			<stop  offset="1" style="stop-color:#C69D33"/>
		</linearGradient>
		<path class="st5" d="M10.7,40.4c0.3-0.2,0.5-0.3,0.7-0.6c0.2-0.3,0.2-0.5,0.5-0.8c0.3-0.3,0.7-0.5,0.8-0.5
			c0.1,0.1-0.1,0.2-0.3,0.7c-0.1,0.2-0.1,0.4-0.2,0.7c-0.1,0.3-0.2,0.6-0.3,1.2c-0.2,1-0.1,1-0.4,2.3c-0.1,0.3-0.1,0.8-0.2,1.5
			c0,0.1,0,0.2,0,0.4c0,0.2-0.2,1.6-0.2,2.7c0.1,2,0.7,3.9,1.5,5.7c0.3,0.7,1.2,1.9,1.9,3.2c0.3,0.5,1.2,1,1.4,1.3
			c-0.5,0.8-1,1.9-1.4,3.3c0,0-0.4,1.5-0.4,3.3c0,0.4,0,1,0.2,1.7c0.1,0.4,0.2,0.7,0.2,0.8c0.1,0.4,0.3,0.7,0.4,0.8
			c0.2,0.3,0.3,0.5,0.3,0.5c0,0-0.2-0.2-0.3-0.3c-0.5-0.5-0.8-0.6-1.4-1.1c0,0-0.4-0.3-1.3-1c-0.7-0.6-2.1-1.8-3.2-3.8
			c-0.2-0.4-0.4-0.8-0.7-1.5c-0.5-1.2-0.9-2.4-1.1-3.1c-0.3-1-0.2-2.7,0.1-6c0.3-3.8,0.5-4.4,0.7-4.8c0.1-0.2,0.5-1.1,0.9-2.3
			C9,44,9.1,43.5,9.1,43.2c0.1-0.8,0-0.8,0.2-1.2C9.6,41.1,10.4,40.6,10.7,40.4z"/>
		<linearGradient id="SVGID_8_" gradientUnits="userSpaceOnUse" x1="25.6268" y1="49.457" x2="64.5681" y2="49.457">
			<stop  offset="0.8752" style="stop-color:#F2B620"/>
			<stop  offset="1" style="stop-color:#F2B620"/>
			<stop  offset="1" style="stop-color:#C69D33"/>
		</linearGradient>
		<path class="st6" d="M30.6,75.9c-0.3-0.8-0.4-1.7-0.3-2.5c0.1-0.7,0.2-1.3,0.5-1.9c0.3-0.8,0.6-1.5,1-2.2c0.4-0.7,0.9-1.4,1.5-2
			c0.6-0.7,1.2-1.3,1.9-1.9c0.7-0.6,1.3-1,1.8-1.4c0.9-0.6,2.1-1.6,3.7-2.8l0.1,0l2.8-1.9c1.7-1.2,2.7-1.9,4-2.8
			c1.7-1.2,2.9-2.2,4-3c1.8-1.4,2.7-2.1,3.5-2.8c1.6-1.4,3-2.9,4.2-4.5c1-1.2,1.8-2.5,2.5-3.9c0.6-1.1,1-2.2,1.4-3.4
			c1-3,1.7-5.1,1.2-7.9c-0.4-2.1-1.3-4.2-2.7-6c-0.6-0.7-1.3-1.4-1.3-1.4c-0.3-0.3-0.8-0.8-1.4-1.3c-0.9-0.7-1.8-1.3-1.8-1.2
			c0,0,0.2,0.1,0.4,0.5c0.1,0.1,0.1,0.2,0.3,0.5c0.1,0.2,0.2,0.5,0.4,0.8c0.3,0.5,0.5,0.9,0.7,1.2c0.4,0.8,0.7,1.5,0.9,2.1
			c0.2,0.6,0.3,0.9,0.4,1.1c0.1,0.6,0.1,1.1,0.2,1.9c0,0.1,0,0.6,0,1.1c0,1.2-0.3,2.9-0.6,4c-0.9,3.2-3.2,6-4.3,7.4
			c-1.3,1.6-2.8,3-4.3,4.4c-1.9,1.7-3.9,3.3-6,4.7c-2.6,1.9-3.5,2.5-5.6,3.9c-1.2,0.9-2.1,1.5-3,2.1c-2.3,1.6-4.5,3.3-6.5,5.2
			c-1.9,1.8-2.8,2.7-3.5,4.3c-0.3,0.6-1.6,3.7-0.3,6.6c0.4,0.9,1,1.7,1.8,2.4c0.7,0.6,1.4,1.2,2.2,1.8l1.7,1H32c0,0-0.4-0.4-0.7-0.7
			C31,76.8,30.7,76.4,30.6,75.9z"/>
		<linearGradient id="SVGID_9_" gradientUnits="userSpaceOnUse" x1="29.3874" y1="74.8089" x2="63.923" y2="27.2748">
			<stop  offset="8.291457e-02" style="stop-color:#C69D33"/>
			<stop  offset="0.2047" style="stop-color:#C89E32"/>
			<stop  offset="0.2485" style="stop-color:#CFA22F"/>
			<stop  offset="0.2798" style="stop-color:#DAA92A"/>
			<stop  offset="0.3049" style="stop-color:#EBB223"/>
			<stop  offset="0.3125" style="stop-color:#F2B620"/>
			<stop  offset="0.677" style="stop-color:#F2B620"/>
			<stop  offset="0.7991" style="stop-color:#C69D33"/>
		</linearGradient>
		<path class="st7" d="M61.4,27.9c-0.1-0.4-0.4-1.1-0.9-1.9c-0.4-0.7-0.9-1.5-1.7-2.4c0.1,0.2,0.2,0.4,0.3,0.8
			c0.6,1.4,1.1,2.4,1.2,3.8c0.1,0.5,0.1,0.9,0,1.5c0,0.5,0,1.3-0.2,2.4c-0.1,0.7-0.2,1.6-0.6,2.7c-0.4,1.4-1,2.4-1.4,3
			c-0.5,0.8-0.9,1.4-1.4,2.1c-0.2,0.3-0.9,1.2-1.9,2.3c-0.3,0.3-1.3,1.5-2.9,3c-1.2,1.1-2.1,1.8-3.1,2.6c-1.2,1-2.2,1.7-2.6,2
			c-0.8,0.6-1.6,1.2-1.6,1.2c-0.1,0.1-0.4,0.3-0.9,0.6c-0.7,0.5-1,0.7-1.1,0.8c-0.8,0.5-0.7,0.5-1.7,1.1c-0.4,0.3-0.5,0.4-1.4,1
			c-0.2,0.2-0.4,0.3-0.6,0.4c-0.2,0.2-0.5,0.3-0.7,0.5c-6.2,4.8-8.9,10.4-9.1,12.9c-0.1,1.1,0.2,3.9,0.4,5c0.1,0.6,0.4,1.1,0.4,1.1
			c0.1,0.4,0.3,0.8,0.4,1.1c0-0.1-0.1-0.2-0.1-0.4c0-0.1-0.1-0.6-0.1-1.2c0-0.1,0-0.5,0.1-1.2c0.1-0.4,0.2-1.1,0.5-1.8
			c0.7-1.8,1.8-3.1,2.3-3.7c0,0,0.9-1.1,2-2c0.4-0.3,1-0.8,1.4-1.1c0.8-0.6,0.9-0.6,1.6-1.2c1.2-0.9,1.3-1.1,2.4-1.9
			c0.3-0.2,0.5-0.4,0.9-0.7c0.6-0.4,1-0.7,1.6-1.1l1.7-1.1c0.9-0.6,1.5-1,2.3-1.6c0.3-0.2,1.4-1,2.8-2.1c1.2-0.9,1.9-1.4,2.3-1.8
			c0.7-0.6,1.7-1.4,2.8-2.7c0.3-0.4,0.6-0.7,0.8-1c0.3-0.4,0.7-1,1.5-2.2c0.7-1.1,1.2-1.9,1.4-2.3c1-1.6,1.4-2.4,1.8-3.2
			c1.1-2.2,1.3-4.2,1.5-5.7c0.1-1,0.3-2.8,0-5.1C61.8,29.2,61.5,28.2,61.4,27.9z"/>
		<linearGradient id="SVGID_10_" gradientUnits="userSpaceOnUse" x1="6.179" y1="42.3803" x2="19.7873" y2="65.9506">
			<stop  offset="0.3914" style="stop-color:#F2B620"/>
			<stop  offset="0.5845" style="stop-color:#C69D33"/>
		</linearGradient>
		<path class="st8" d="M10.3,40.2c0.1,0,0.4,0.1,0.6,0c0.2-0.1,0.2-0.3,0.3-0.5c0.2-0.1,0.3-0.2,0.5-0.2c0.1,0,0.2-0.1,0.3-0.2
			c0.1-0.1,0.2-0.3,0.2-0.3c0,0-0.3,0.3-0.5,0.5c-0.1,0.1-0.4,0.5-0.6,1.3c-0.1,0.6-0.2,1.3-0.3,1.9c0,0.2-0.1,0.6-0.1,1.1
			c-0.1,1.8,0.2,3.8,0.3,4.4c0.2,1,0.4,2.3,0.8,3.7c0.1,0.3,0.3,0.5,0.4,0.8c0.2,0.5,0.3,0.8,0.4,1c0.4,0.7,0.8,1.5,1.3,2.1
			c0.4,0.5,0.7,0.9,0.9,1.2c0.3,0.4,0.5,0.6,0.6,0.7c0.2,0.2,0.4,0.4,0.5,0.5c-0.1,0.1-0.3,0.3-0.5,0.6C14.1,61,14,63.4,14,64.5
			c0,1.7,0.4,2.6,0.5,2.9c0.2,0.5,0.5,0.9,0.7,1.2c-1.6-1-2.6-2-3.2-2.8c-0.6-0.7-1-1.4-1.7-2.6c-0.3-0.4-0.9-1.6-1.4-2.4
			c-1.6-3.1-1.8-11.2-1.8-11.6c0-0.9,0-1.7,0.1-2.6c0.1-0.4,0.2-1.3,0.6-2.4C8.4,42.5,9.5,40.1,10.3,40.2z"/>
		<path class="st9" d="M70.2,41V24.3h4.6v6.8h4v-6.8h4.6V41h-4.6v-7.4h-4V41H70.2z"/>
		<path class="st9" d="M86.9,41V24.3h4.6V41H86.9z"/>
		<path class="st9" d="M94.8,41l0.4-16.7h4.9l2.8,10.5l3-10.5h4.7L111,41h-3.3l-0.4-11.3L104.4,41h-2.9l-3-11.4L98.2,41H94.8z"/>
		<path class="st9" d="M114.3,41V24.3h9.5v2.3h-4.9v4.5h4.2v2.3h-4.2V41L114.3,41z"/>
		<path class="st9" d="M126.2,41V24.3h4.6v14.4h5.3V41L126.2,41z"/>
		<path class="st9" d="M137.1,41l4.4-16.7h5.1l4.3,16.7h-4.2l-0.8-3.7h-3.6l-0.9,3.7H137.1z M142.7,35.3h2.7l-1.4-6.7L142.7,35.3z"
			/>
		<path class="st9" d="M151.8,41l4.5-8.9l-4.3-7.8h4.3l2.7,4.8l2.3-4.8h3.9l-4.1,8.5l4.5,8.1h-4.3l-3-5.2l-2.6,5.2H151.8z"/>
		<g>
			<path class="st10" d="M71.6,43.7v6.7h-1.4v-6.7H71.6z"/>
			<path class="st10" d="M77.5,43.7v6.7h-1.3l-2.1-4.2v4.2h-1.3v-6.7h1.3l2.2,4.2v-4.2H77.5z"/>
			<path class="st10" d="M80,43.7v6.7h-1.4v-6.7H80z M82.5,43.7v1.1h-2.8v-1.1H82.5z M82.2,46.5v1.1h-2.5v-1.1H82.2z"/>
			<path class="st10" d="M88.1,46.5v1.1c0,0.4,0,0.8-0.2,1.2c-0.1,0.3-0.3,0.6-0.5,0.9c-0.2,0.2-0.5,0.4-0.8,0.5
				c-0.3,0.1-0.7,0.2-1,0.2c-0.3,0-0.7-0.1-1-0.2c-0.3-0.1-0.6-0.3-0.8-0.5c-0.2-0.3-0.4-0.6-0.5-0.9c-0.1-0.4-0.2-0.8-0.2-1.2v-1.1
				c0-0.4,0.1-0.9,0.2-1.3c0.1-0.3,0.3-0.6,0.5-0.9c0.2-0.2,0.5-0.4,0.8-0.6c0.3-0.1,0.7-0.2,1-0.2c0.3,0,0.7,0.1,1,0.2
				c0.3,0.1,0.6,0.3,0.8,0.6c0.2,0.3,0.4,0.6,0.5,0.9C88,45.7,88.1,46.1,88.1,46.5z M86.7,47.6v-1.1c0-0.3,0-0.5-0.1-0.8
				c0-0.2-0.1-0.4-0.2-0.6c-0.1-0.1-0.2-0.2-0.3-0.3c-0.1-0.1-0.3-0.1-0.5-0.1c-0.2,0-0.3,0-0.5,0.1c-0.1,0.1-0.3,0.2-0.3,0.3
				c-0.1,0.2-0.2,0.4-0.2,0.6c0,0.3-0.1,0.5-0.1,0.8v1.1c0,0.3,0,0.5,0.1,0.8c0,0.2,0.1,0.4,0.2,0.5c0.1,0.1,0.2,0.2,0.3,0.3
				c0.1,0.1,0.3,0.1,0.5,0.1c0.2,0,0.3,0,0.5-0.1c0.1-0.1,0.3-0.2,0.3-0.3c0.1-0.2,0.2-0.3,0.2-0.5C86.7,48.2,86.7,47.9,86.7,47.6z"
				/>
			<path class="st10" d="M89.1,43.7h2.2c0.4,0,0.8,0.1,1.2,0.2c0.3,0.2,0.6,0.4,0.7,0.7c0.2,0.3,0.3,0.7,0.3,1.1
				c0,0.3,0,0.6-0.2,0.9c-0.1,0.2-0.2,0.5-0.4,0.6c-0.2,0.2-0.4,0.3-0.7,0.4l-0.4,0.2h-1.8v-1.1h1.2c0.2,0,0.3,0,0.5-0.1
				c0.1-0.1,0.2-0.2,0.3-0.3c0.1-0.2,0.1-0.3,0.1-0.5c0-0.2,0-0.4-0.1-0.5c0-0.1-0.1-0.3-0.3-0.4c-0.1-0.1-0.3-0.1-0.5-0.1h-0.9v5.6
				h-1.4V43.7z M92.2,50.4l-1.3-3h1.4l1.3,2.9v0.1L92.2,50.4z"/>
			<path class="st10" d="M94.4,43.7h1.2l0.2,4.4v2.3h-1.3V43.7z M94.9,43.7h1.2l1.4,4.6l1.4-4.6h1.1l-2,6.7h-1L94.9,43.7z
				 M99.5,43.7h1.2v6.7h-1.3v-2.3L99.5,43.7z"/>
			<path class="st10" d="M104.3,44.9l-1.5,5.5h-1.5l2.1-6.7h0.9L104.3,44.9z M105.5,47.9V49h-3.1v-1.1H105.5z M105.5,50.4l-1.5-5.5
				l-0.1-1.2h0.9l2.2,6.7L105.5,50.4z"/>
			<path class="st10" d="M111.5,43.7v1.1h-4.8v-1.1H111.5z M109.8,43.7v6.7h-1.4v-6.7H109.8z"/>
			<path class="st10" d="M113.7,43.7v6.7h-1.4v-6.7H113.7z"/>
			<path class="st10" d="M119.7,46.5v1.1c0,0.4,0,0.8-0.2,1.2c-0.1,0.3-0.3,0.6-0.5,0.9c-0.2,0.2-0.5,0.4-0.8,0.5
				c-0.3,0.1-0.7,0.2-1,0.2c-0.3,0-0.7-0.1-1-0.2c-0.3-0.1-0.6-0.3-0.8-0.5c-0.2-0.3-0.4-0.6-0.5-0.9c-0.1-0.4-0.2-0.8-0.2-1.2v-1.1
				c0-0.4,0.1-0.9,0.2-1.3c0.1-0.3,0.3-0.6,0.5-0.9c0.2-0.2,0.5-0.4,0.8-0.6c0.3-0.1,0.7-0.2,1-0.2c0.3,0,0.7,0.1,1,0.2
				c0.3,0.1,0.6,0.3,0.8,0.6c0.2,0.3,0.4,0.6,0.5,0.9C119.7,45.7,119.7,46.1,119.7,46.5z M118.3,47.6v-1.1c0-0.3,0-0.5-0.1-0.8
				c0-0.2-0.1-0.4-0.2-0.6c-0.1-0.1-0.2-0.2-0.3-0.3c-0.1-0.1-0.3-0.1-0.5-0.2c-0.2,0-0.3,0-0.5,0.1c-0.1,0.1-0.3,0.2-0.3,0.3
				c-0.1,0.2-0.2,0.4-0.2,0.6c0,0.3-0.1,0.5-0.1,0.8v1.1c0,0.3,0,0.5,0.1,0.8c0,0.2,0.1,0.4,0.2,0.5c0.1,0.1,0.2,0.2,0.3,0.3
				c0.1,0.1,0.3,0.2,0.5,0.2c0.2,0,0.3,0,0.5-0.1c0.1-0.1,0.3-0.2,0.3-0.3c0.1-0.2,0.2-0.3,0.2-0.5
				C118.3,48.2,118.3,47.9,118.3,47.6z"/>
			<path class="st10" d="M125.5,43.7v6.7h-1.3l-2.2-4.2v4.2h-1.3v-6.7h1.3l2.2,4.2v-4.2H125.5z"/>
			<path class="st10" d="M133,43.7v1.1h-4.8v-1.1H133z M131.3,43.7v6.7h-1.4v-6.7H131.3z"/>
			<path class="st10" d="M135.2,43.7v6.7h-1.4v-6.7H135.2z M137.8,43.7v1.1h-3v-1.1H137.8z M137.4,46.4v1.1h-2.6v-1.1H137.4z
				 M137.8,49.3v1.1h-3v-1.1H137.8z"/>
			<path class="st10" d="M141.8,48.2h1.4c0,0.4-0.1,0.9-0.3,1.3c-0.2,0.3-0.5,0.6-0.8,0.8c-0.4,0.2-0.8,0.3-1.3,0.3
				c-0.3,0-0.7-0.1-1-0.2c-0.3-0.1-0.6-0.3-0.8-0.5c-0.2-0.3-0.4-0.6-0.5-0.9c-0.1-0.4-0.2-0.8-0.2-1.2v-1.1c0-0.4,0-0.8,0.2-1.2
				c0.1-0.3,0.3-0.6,0.5-0.9c0.2-0.2,0.5-0.4,0.8-0.5c0.3-0.1,0.7-0.2,1-0.2c0.4,0,0.9,0.1,1.3,0.3c0.3,0.2,0.6,0.5,0.8,0.8
				c0.2,0.4,0.3,0.8,0.3,1.3h-1.4c0-0.3,0-0.5-0.1-0.8c0-0.2-0.2-0.3-0.3-0.4c-0.2-0.1-0.4-0.1-0.6-0.1c-0.2,0-0.3,0-0.5,0.1
				c-0.1,0.1-0.3,0.2-0.3,0.3c-0.1,0.2-0.2,0.4-0.2,0.5c0,0.3-0.1,0.5-0.1,0.8v1.2c0,0.3,0,0.5,0.1,0.8c0,0.2,0.1,0.4,0.2,0.5
				c0.1,0.1,0.2,0.2,0.3,0.3c0.2,0.1,0.3,0.1,0.5,0.1c0.2,0,0.4,0,0.6-0.1c0.2-0.1,0.3-0.2,0.3-0.4
				C141.8,48.6,141.8,48.4,141.8,48.2z"/>
			<path class="st10" d="M145.5,43.7v6.7h-1.4v-6.7H145.5z M147.9,46.4v1.1h-2.8v-1.1H147.9z M148.9,43.7v6.7h-1.4v-6.7H148.9z"/>
			<path class="st10" d="M154.8,43.7v6.7h-1.3l-2.2-4.2v4.2H150v-6.7h1.3l2.1,4.2v-4.2H154.8z"/>
			<path class="st10" d="M160.7,46.5v1.1c0,0.4-0.1,0.8-0.2,1.2c-0.1,0.3-0.3,0.6-0.5,0.9c-0.2,0.2-0.5,0.4-0.8,0.5
				c-0.3,0.1-0.7,0.2-1,0.2c-0.3,0-0.7-0.1-1-0.2c-0.3-0.1-0.6-0.3-0.8-0.5c-0.2-0.3-0.4-0.6-0.5-0.9c-0.1-0.4-0.2-0.8-0.2-1.2v-1.1
				c0-0.4,0.1-0.9,0.2-1.3c0.1-0.3,0.3-0.6,0.5-0.9c0.2-0.2,0.5-0.4,0.8-0.6c0.3-0.1,0.7-0.2,1-0.2c0.3,0,0.7,0.1,1,0.2
				c0.3,0.1,0.6,0.3,0.8,0.6c0.2,0.3,0.4,0.6,0.5,0.9C160.7,45.7,160.7,46.1,160.7,46.5z M159.4,47.6v-1.1c0-0.3,0-0.5-0.1-0.8
				c0-0.2-0.1-0.4-0.2-0.6c-0.1-0.1-0.2-0.2-0.3-0.3c-0.1-0.1-0.3-0.1-0.5-0.1c-0.2,0-0.3,0-0.5,0.1c-0.1,0.1-0.3,0.2-0.3,0.3
				c-0.1,0.2-0.2,0.4-0.2,0.6c0,0.3-0.1,0.5-0.1,0.8v1.1c0,0.3,0,0.5,0.1,0.8c0,0.2,0.1,0.4,0.2,0.5c0.1,0.1,0.2,0.2,0.3,0.3
				c0.1,0.1,0.3,0.1,0.5,0.1c0.2,0,0.3,0,0.5-0.1c0.1-0.1,0.3-0.2,0.3-0.3c0.1-0.2,0.2-0.3,0.2-0.5
				C159.3,48.2,159.4,47.9,159.4,47.6z"/>
			<path class="st10" d="M163.1,43.7v6.7h-1.4v-6.7H163.1z M165.6,49.3v1.1h-2.8v-1.1H165.6z"/>
			<path class="st10" d="M170.9,46.5v1.1c0,0.4-0.1,0.8-0.2,1.2c-0.1,0.3-0.3,0.6-0.5,0.9c-0.2,0.2-0.5,0.4-0.8,0.5
				c-0.3,0.1-0.7,0.2-1,0.2c-0.3,0-0.7-0.1-1-0.2c-0.3-0.1-0.6-0.3-0.8-0.5c-0.2-0.3-0.4-0.6-0.5-0.9c-0.1-0.4-0.2-0.8-0.2-1.2v-1.1
				c0-0.4,0.1-0.9,0.2-1.3c0.1-0.3,0.3-0.6,0.5-0.9c0.2-0.2,0.5-0.4,0.8-0.6c0.3-0.1,0.7-0.2,1-0.2c0.3,0,0.7,0.1,1,0.2
				c0.3,0.1,0.6,0.3,0.8,0.6c0.2,0.3,0.4,0.6,0.5,0.9C170.8,45.7,170.9,46.1,170.9,46.5z M169.5,47.6v-1.1c0-0.3,0-0.5-0.1-0.8
				c0-0.2-0.1-0.4-0.2-0.6c-0.1-0.1-0.2-0.2-0.3-0.3c-0.1-0.1-0.3-0.1-0.5-0.1c-0.2,0-0.3,0-0.5,0.1c-0.1,0.1-0.3,0.2-0.3,0.3
				c-0.1,0.2-0.2,0.4-0.2,0.6c-0.1,0.3-0.1,0.5-0.1,0.8v1.1c0,0.3,0,0.5,0.1,0.8c0,0.2,0.1,0.4,0.2,0.5c0.1,0.1,0.2,0.2,0.3,0.3
				c0.1,0.1,0.3,0.1,0.5,0.1c0.2,0,0.3,0,0.5-0.1c0.1-0.1,0.3-0.2,0.3-0.3c0.1-0.2,0.2-0.3,0.2-0.5
				C169.5,48.2,169.5,47.9,169.5,47.6z"/>
			<path class="st10" d="M176.6,46.9v2.8c-0.1,0.1-0.3,0.2-0.4,0.4c-0.2,0.1-0.5,0.3-0.7,0.4c-0.4,0.1-0.7,0.2-1.1,0.1
				c-0.4,0-0.7-0.1-1-0.2c-0.3-0.1-0.6-0.3-0.8-0.5c-0.2-0.3-0.4-0.6-0.5-0.9c-0.1-0.4-0.2-0.8-0.2-1.3v-1.1c0-0.4,0.1-0.9,0.2-1.3
				c0.1-0.3,0.3-0.6,0.5-0.9c0.2-0.2,0.5-0.4,0.8-0.5c0.3-0.1,0.7-0.2,1-0.2c0.4,0,0.9,0.1,1.3,0.2c0.3,0.2,0.6,0.5,0.8,0.8
				c0.2,0.4,0.3,0.8,0.3,1.2h-1.3c0-0.2-0.1-0.5-0.1-0.7c-0.1-0.1-0.2-0.3-0.3-0.3c-0.2-0.1-0.4-0.1-0.6-0.1c-0.2,0-0.3,0-0.5,0.1
				c-0.1,0.1-0.3,0.2-0.3,0.3c-0.1,0.2-0.2,0.3-0.2,0.5c0,0.3-0.1,0.5-0.1,0.8v1.1c0,0.3,0,0.5,0.1,0.8c0,0.2,0.1,0.4,0.2,0.5
				c0.1,0.1,0.2,0.2,0.4,0.3c0.2,0.1,0.4,0.1,0.5,0.1c0.1,0,0.3,0,0.4,0c0.1,0,0.2-0.1,0.2-0.1c0,0,0.1-0.1,0.2-0.1v-1.2h-0.9v-1
				L176.6,46.9z"/>
			<path class="st10" d="M179,43.7v6.7h-1.4v-6.7H179z"/>
			<path class="st10" d="M181.5,43.7v6.7h-1.4v-6.7H181.5z M184.1,43.7v1.1h-3v-1.1H184.1z M183.7,46.4v1.1h-2.6v-1.1H183.7z
				 M184.1,49.3v1.1h-3v-1.1H184.1z"/>
			<path class="st10" d="M187.8,48.6c0-0.1,0-0.2,0-0.3c0-0.1-0.1-0.2-0.1-0.3c-0.1-0.1-0.2-0.2-0.3-0.2c-0.2-0.1-0.3-0.2-0.5-0.3
				c-0.3-0.1-0.5-0.2-0.7-0.3c-0.2-0.1-0.4-0.3-0.6-0.4c-0.2-0.2-0.3-0.3-0.4-0.6c-0.1-0.2-0.2-0.5-0.2-0.8c0-0.3,0-0.5,0.2-0.8
				c0.1-0.2,0.3-0.4,0.4-0.6c0.2-0.2,0.4-0.3,0.7-0.4c0.3-0.1,0.6-0.1,0.9-0.1c0.4,0,0.8,0.1,1.1,0.3c0.3,0.2,0.6,0.4,0.8,0.7
				c0.2,0.3,0.3,0.7,0.3,1.1h-1.4c0-0.2,0-0.3-0.1-0.5c0-0.1-0.1-0.3-0.3-0.3c-0.1-0.1-0.3-0.1-0.5-0.1c-0.2,0-0.3,0-0.4,0.1
				c-0.1,0.1-0.2,0.2-0.3,0.3c-0.1,0.1-0.1,0.3-0.1,0.4c0,0.1,0,0.2,0.1,0.3c0.1,0.1,0.1,0.2,0.2,0.2c0.1,0.1,0.2,0.1,0.3,0.2
				l0.4,0.2c0.3,0.1,0.6,0.2,0.9,0.4c0.2,0.1,0.4,0.3,0.6,0.5c0.2,0.2,0.3,0.4,0.4,0.6c0.1,0.3,0.1,0.5,0.1,0.8c0,0.3,0,0.5-0.1,0.8
				c-0.1,0.2-0.2,0.4-0.4,0.6c-0.2,0.2-0.4,0.3-0.7,0.4c-0.3,0.1-0.6,0.1-0.9,0.1c-0.3,0-0.6,0-0.9-0.1c-0.3-0.1-0.5-0.2-0.8-0.4
				c-0.2-0.2-0.4-0.4-0.5-0.7c-0.1-0.3-0.2-0.6-0.2-1h1.4c0,0.2,0,0.3,0.1,0.5c0,0.1,0.1,0.2,0.2,0.3c0.1,0.1,0.2,0.1,0.3,0.2
				c0.1,0,0.3,0.1,0.4,0.1c0.2,0,0.3,0,0.4-0.1c0.1-0.1,0.2-0.2,0.2-0.3C187.9,48.9,187.8,48.7,187.8,48.6z"/>
		</g>
	</g>
	<linearGradient id="SVGID_11_" gradientUnits="userSpaceOnUse" x1="28.7983" y1="32.8197" x2="38.0327" y2="33.1422">
		<stop  offset="0.3071" style="stop-color:#1B7EC2"/>
		<stop  offset="0.4918" style="stop-color:#166DB5"/>
	</linearGradient>
	<polygon class="st11" points="29.4,39.4 37.1,34.7 35.7,26.5 28.8,31.4 	"/>
</g>

<linearGradient id="SVGID_12_" gradientUnits="userSpaceOnUse" x1="38.464" y1="77.6429" x2="38.464" y2="34.2559" gradientTransform="matrix(1 0 0 -1 0 80)">
	<stop  offset="0.4087" style="stop-color:#239AD9"/>
	<stop  offset="0.5961" style="stop-color:#166DB5"/>
</linearGradient>
<path class="st12" d="M34,45L33.4,9.1V9.1c0.2-1.2,0.7-2.3,1.4-3.3c0.7-1,1.7-1.7,2.8-2.3c1.6-0.8,3.3-1.2,5-1.2c0.1,0,0.2,0,0.3,0
	c0.1,0,0.2,0.1,0.3,0.2c0.1,0.1,0.1,0.2,0.2,0.2c0,0.1,0.1,0.2,0.1,0.3c-0.1,11.9-0.2,23.8-0.2,35.7c0,0.1,0,0.2-0.1,0.3
	c0,0.1-0.1,0.2-0.2,0.2l-7.6,6.3c-0.1,0.1-0.3,0.2-0.4,0.2c-0.2,0-0.3,0-0.4,0c-0.1-0.1-0.3-0.1-0.4-0.3C34.1,45.3,34,45.2,34,45z"
	/>
<linearGradient id="SVGID_13_" gradientUnits="userSpaceOnUse" x1="20.9373" y1="68.7177" x2="20.9373" y2="23.0838" gradientTransform="matrix(1 0 0 -1 0 80)">
	<stop  offset="0.4087" style="stop-color:#239AD9"/>
	<stop  offset="0.5961" style="stop-color:#166DB5"/>
</linearGradient>
<path class="st13" d="M15.8,56.2l-0.6-37.7v-0.1c0.2-1.2,0.8-2.4,1.6-3.4c0.8-1,1.9-1.8,3.2-2.4c1.8-0.8,3.7-1.2,5.7-1.2
	c0.1,0,0.2,0,0.4,0c0.1,0,0.2,0.1,0.3,0.2c0.1,0.1,0.2,0.2,0.2,0.3c0.1,0.1,0.1,0.2,0.1,0.3c-0.1,12.5-0.2,25-0.3,37.5
	c0,0.1,0,0.2-0.1,0.3c-0.1,0.1-0.1,0.2-0.2,0.2l-8.7,6.6c-0.1,0.1-0.3,0.2-0.5,0.2c-0.2,0-0.3,0-0.5,0c-0.2-0.1-0.3-0.1-0.4-0.3
	C15.9,56.5,15.8,56.3,15.8,56.2z"/>
<linearGradient id="SVGID_14_" gradientUnits="userSpaceOnUse" x1="24.7544" y1="66.759" x2="24.7544" y2="24.1721" gradientTransform="matrix(1 0 0 -1 0 80)">
	<stop  offset="0.2572" style="stop-color:#239AD9"/>
	<stop  offset="0.5843" style="stop-color:#166DB5"/>
</linearGradient>
<path class="st14" d="M19.8,55.1l-0.6-35.2v-0.1c0.2-1.2,0.7-2.3,1.6-3.2c0.8-0.9,1.9-1.7,3.1-2.2c1.7-0.8,3.6-1.1,5.6-1.1
	c0.1,0,0.2,0,0.3,0c0.1,0,0.2,0.1,0.3,0.1c0.1,0.1,0.2,0.1,0.2,0.2c0.1,0.1,0.1,0.2,0.1,0.3c-0.1,11.7-0.2,23.4-0.3,35
	c0,0.1,0,0.2-0.1,0.3c-0.1,0.1-0.1,0.2-0.2,0.2l-8.4,6.1c-0.1,0.1-0.3,0.2-0.5,0.2c-0.2,0-0.3,0-0.5,0c-0.2-0.1-0.3-0.1-0.4-0.2
	C19.9,55.4,19.8,55.3,19.8,55.1z"/>
<linearGradient id="SVGID_15_" gradientUnits="userSpaceOnUse" x1="15.2631" y1="43.8234" x2="55.1133" y2="43.8234">
	<stop  offset="0" style="stop-color:#F2B620"/>
	<stop  offset="1" style="stop-color:#F2B620"/>
</linearGradient>
<path class="st15" d="M23.3,74.7c-0.3-0.3-0.5-0.6-0.7-0.9c-0.2-0.5-0.4-1-0.5-1.5c-0.2-0.7-0.2-1.5-0.2-2.2c0-1.2,0.2-2.4,0.6-3.6
	c1-2.9,3.5-4.8,4.9-5.8c0.7-0.5,1.5-1.1,2.7-2.1c0.2-0.2,1-0.9,1.6-1.3c1.7-1.3,2.5-1.7,3.9-2.8c0,0,0.7-0.5,1.6-1.2
	c2.1-1.6,4.3-3.5,5.5-4.6c5.1-4.5,4.6-3.9,5.3-4.7c1.6-1.7,3-3.4,4.3-5.3c1.2-1.6,2.3-3.2,3.1-5c1-1.9,1.5-4,1.5-6.2
	c0-2.5-0.8-4.9-2.1-7c-0.9-1.4-1.9-2.6-3.1-3.8c-0.8-0.8-1.6-1.6-2.5-2.3c-2.3-1.7-4.8-2.7-4.9-2.6c-0.1,0.1,0.6,0.4,1.4,1.1
	c1,0.9,1.7,2.1,2.1,3.3c0.8,2.2,1,4.5,0.8,6.8c-0.2,2-0.6,3.9-1.3,5.8c-0.2,0.7-0.5,1.7-1,2.8c0,0-1,2.2-2.5,4.2
	c-1.4,1.8-4,4.4-11.6,10.1c-1.6,1.2-6.9,5.1-9.1,6.7c-0.9,0.6-1.1,0.8-1.8,1.4c-0.8,0.5-1.5,1.1-2.1,1.7c-0.9,0.8-1.7,1.7-2.4,2.7
	c-1,1.5-3.1,7-0.1,11.6c1.2,1.7,2.8,3.2,4.7,4.2c0.9,0.6,1.9,1.1,3,1.5C24.1,75.4,23.7,75.1,23.3,74.7z"/>
<linearGradient id="SVGID_16_" gradientUnits="userSpaceOnUse" x1="17.8543" y1="70.8879" x2="55.5369" y2="19.0222">
	<stop  offset="8.291457e-02" style="stop-color:#C69D33"/>
	<stop  offset="0.2047" style="stop-color:#C89E32"/>
	<stop  offset="0.2485" style="stop-color:#CFA22F"/>
	<stop  offset="0.2798" style="stop-color:#DAA92A"/>
	<stop  offset="0.3049" style="stop-color:#EBB223"/>
	<stop  offset="0.3125" style="stop-color:#F2B620"/>
	<stop  offset="0.677" style="stop-color:#F2B620"/>
	<stop  offset="0.7991" style="stop-color:#C69D33"/>
</linearGradient>
<path class="st16" d="M24,54.4c-1,1.4-2.3,3.3-3.4,5.6c0,0-1,2.1-1.2,4.1c-0.1,0.9-0.1,1.7,0,2.6c0.1,0.9,0.4,1.8,0.7,2.7
	c0.5,1.3,1.2,2.6,2,3.8c0.4,0.7,0.9,1.4,1.5,2c0,0-0.6-0.9-0.6-0.9c-0.3-0.5-0.5-1-0.6-1.6c-0.2-0.8-0.2-1.6-0.2-2.4
	c0-0.4,0.1-0.8,0.1-1.2c0.1-0.9,0.4-1.7,0.7-2.6c0,0,0.1-0.3,0.2-0.5c0.8-1.5,1.8-2.8,3.1-3.9c1.3-1.2,2.6-2.1,4-3.3
	c0.1-0.1,0.5-0.5,1.1-0.9c0.2-0.2,0.5-0.4,1-0.8c2.6-2,2-1.4,5.4-4c1.8-1.3,3.4-2.8,5-4.3c2.1-2.1,2.6-3.5,4.2-6.8
	c1.3-2.7,2.2-5.4,2.9-8.3c0.6-2.6,0.9-5.3,1-8c0-0.7,0-1.5-0.1-2.2c-0.1-1-0.3-2-0.7-3c-0.2-0.5-0.5-1-0.7-1.5
	c-0.4-0.8-0.8-1.5-1.2-2.2c0.1,0.3,0.2,0.7,0.3,1.2c0.2,0.7,0.3,1.7,0.4,2.8c0,1.1,0,1.9-0.1,2.6c-0.1,1.3-0.4,2.3-0.5,3
	c-0.1,0.3-0.4,1.6-0.9,3.2c-0.2,0.7-0.5,1.5-1,2.5c-0.8,1.6-1.5,2.7-1.8,3.1C43.9,36,43.4,36.6,43,37c-0.8,0.9-1.5,1.6-2.1,2.1
	c-1.1,1-2,1.8-2.7,2.4c-0.3,0.2-0.5,0.4-0.7,0.6C36.1,43.2,35,44,33.6,45c-0.7,0.5-2.2,1.6-2.5,1.9c0,0-0.3,0.2-0.6,0.4
	c-0.1,0-0.1,0.1-0.2,0.1C27.4,49.7,25.7,52.1,24,54.4z"/>
</svg>
