<?xml version="1.0" encoding="utf-8"?>
<!-- Generator: Adobe Illustrator 24.3.0, SVG Export Plug-In . SVG Version: 6.00 Build 0)  -->
<svg version="1.1" id="Layer_1" xmlns="http://www.w3.org/2000/svg" xmlns:xlink="http://www.w3.org/1999/xlink" x="0px" y="0px"
	 viewBox="0 0 192 79" style="enable-background:new 0 0 192 79;" xml:space="preserve">
<style type="text/css">
	.st0{clip-path:url(#SVGID_2_);}
	.st1{display:none;fill:#FFFFFF;}
	.st2{fill:#FFFFFF;}
	.st3{clip-path:url(#SVGID_2_);fill:#FFFFFF;}
	.st4{display:none;clip-path:url(#SVGID_2_);fill:url(#SVGID_3_);}
	.st5{display:none;}
	.st6{display:inline;}
	.st7{display:inline;clip-path:url(#SVGID_5_);}
	.st8{fill:url(#SVGID_6_);}
	.st9{display:none;fill:url(#SVGID_7_);}
	.st10{fill:url(#SVGID_8_);}
	.st11{fill:url(#SVGID_9_);}
	.st12{fill:url(#SVGID_10_);}
	.st13{fill:url(#SVGID_11_);}
	.st14{fill:url(#SVGID_12_);}
	.st15{fill:url(#SVGID_13_);}
	.st16{fill:#1269BB;}
	.st17{fill:#F7A41E;}
	.st18{display:inline;clip-path:url(#SVGID_5_);fill:url(#SVGID_14_);}
	.st19{display:inline;clip-path:url(#SVGID_5_);fill:url(#SVGID_15_);}
	.st20{display:inline;clip-path:url(#SVGID_5_);fill:url(#SVGID_16_);}
	.st21{display:inline;clip-path:url(#SVGID_5_);fill:url(#SVGID_17_);}
	.st22{display:inline;clip-path:url(#SVGID_5_);fill:url(#SVGID_18_);}
</style>
<g>
	<defs>
		<rect id="SVGID_1_" x="4.6" y="2.4" width="184.6" height="75.6"/>
	</defs>
	<clipPath id="SVGID_2_">
		<use xlink:href="#SVGID_1_"  style="overflow:visible;"/>
	</clipPath>
	<g class="st0">
		<path class="st1" d="M32.8,46.2L32.2,8.4c0,0,0-0.1,0-0.1c0.2-1.2,0.6-2.4,1.4-3.4c0.7-1,1.7-1.9,2.9-2.5c1.5-0.8,3.3-1.2,5-1.2
			c0.1,0,0.3,0,0.4,0c0.1,0,0.2,0.1,0.3,0.2c0.1,0.1,0.2,0.2,0.2,0.3c0.1,0.1,0.1,0.2,0.1,0.3c-0.1,11.6-0.1,23.1-0.2,34.7l0.2,3.1
			c0,0.1,0,0.2-0.1,0.3c0,0.1-0.1,0.2-0.2,0.3l-7.8,6.3c-0.1,0.1-0.3,0.2-0.5,0.2c-0.2,0-0.4,0-0.5,0c-0.2-0.1-0.3-0.2-0.4-0.3
			C32.9,46.5,32.8,46.4,32.8,46.2z"/>
		<path class="st2" d="M15.2,68.6c0,0-0.2-0.2-0.4-0.6c-0.1-0.1-0.1-0.2-0.2-0.5c-0.3-0.8-0.5-1.6-0.5-1.6c-0.3-1.7,0-3.4,0.1-3.6
			c0.1-0.7,0.3-1.7,1-2.8c0.3-0.5,0.6-0.9,0.9-1.2c-1-0.9-2.2-2.3-3.1-4.1c-1-1.9-1.3-3.4-1.4-3.7c-0.3-1.5-0.3-3-0.3-3.2
			c0,0,0,0,0,0c0-0.9,0.1-1.7,0.4-3.3c0.1-1,0.3-1.9,0.5-2.7c0.2-1.1,0.4-1.6,0.5-1.9c0.2-0.7,0.5-1.2,0.7-1.6
			c-0.1,0-0.2,0.1-0.2,0.2c-0.2,0.2-0.4,0.3-0.5,0.4c-0.4,0.3-0.7,0.4-0.9,0.6c-0.5,0.3-1,0.7-1.2,0.8c-0.7,0.5-1.6,1.3-2.3,2.4
			c-0.7,1-1,1.9-1.3,3c-0.3,0.9-0.9,2.6-0.9,4.9c0,0.8-0.1,3.5,0.9,6.9C7.1,58,7.6,59.9,8.9,62c0.9,1.5,2,2.7,2.1,2.8
			c0.3,0.4,0.6,0.7,0.9,0.9c0,0,0.3,0.3,0.5,0.6C13.4,67.3,15.1,68.7,15.2,68.6z"/>
		<path class="st2" d="M10.7,40.4c0.3-0.2,0.5-0.3,0.7-0.6c0.2-0.3,0.2-0.5,0.5-0.8c0.3-0.3,0.7-0.5,0.8-0.5
			c0.1,0.1-0.1,0.2-0.3,0.7c-0.1,0.2-0.1,0.4-0.2,0.7c-0.1,0.3-0.2,0.6-0.3,1.2c-0.2,1-0.1,1-0.4,2.3c-0.1,0.3-0.1,0.8-0.2,1.5
			c0,0.1,0,0.2,0,0.4c0,0.2-0.2,1.6-0.2,2.7c0.1,2,0.7,3.9,1.5,5.7c0.3,0.7,1.2,1.9,1.9,3.2c0.3,0.5,1.2,1,1.4,1.3
			c-0.5,0.8-1,1.9-1.4,3.3c0,0-0.4,1.5-0.4,3.3c0,0.4,0,1,0.2,1.7c0.1,0.4,0.2,0.7,0.2,0.8c0.1,0.4,0.3,0.7,0.4,0.8
			c0.2,0.3,0.3,0.5,0.3,0.5c0,0-0.2-0.2-0.3-0.3c-0.5-0.5-0.8-0.6-1.4-1.1c0,0-0.4-0.3-1.3-1c-0.7-0.6-2.1-1.8-3.2-3.8
			c-0.2-0.4-0.4-0.8-0.7-1.5c-0.5-1.2-0.9-2.4-1.1-3.1c-0.3-1-0.2-2.7,0.1-6c0.3-3.8,0.5-4.4,0.7-4.8c0.1-0.2,0.5-1.1,0.9-2.3
			C9,44,9.1,43.5,9.1,43.2c0.1-0.8,0-0.8,0.2-1.2C9.6,41.1,10.4,40.6,10.7,40.4z"/>
		<path class="st2" d="M30.6,75.9c-0.3-0.8-0.4-1.7-0.3-2.5c0.1-0.7,0.2-1.3,0.5-1.9c0.3-0.8,0.6-1.5,1-2.2c0.4-0.7,0.9-1.4,1.5-2
			c0.6-0.7,1.2-1.3,1.9-1.9c0.7-0.6,1.3-1,1.8-1.4c0.9-0.6,2.1-1.6,3.7-2.8l0.1,0l2.8-1.9c1.7-1.2,2.7-1.9,4-2.8
			c1.7-1.2,2.9-2.2,4-3c1.8-1.4,2.7-2.1,3.5-2.8c1.6-1.4,3-2.9,4.2-4.5c1.4-1.8,2.3-3.4,2.5-3.9c0.8-1.4,1.8-3.5,2.3-6.3
			c0.3-1.8,0.8-4.1-0.1-6.8c-0.7-2.1-1.9-3.7-2.2-4.1c-0.5-0.6-0.9-1.1-1.3-1.4c-0.3-0.3-0.8-0.8-1.4-1.3c-0.9-0.7-1.8-1.3-1.8-1.2
			c0,0,0.2,0.1,0.4,0.5c0.1,0.1,0.1,0.2,0.3,0.5c0.1,0.2,0.2,0.5,0.4,0.8c0.3,0.5,0.5,0.9,0.7,1.2c0.4,0.8,0.7,1.5,0.9,2.1
			c0.2,0.6,0.3,0.9,0.4,1.1c0.1,0.6,0.1,1.1,0.2,1.9c0,0.1,0,0.6,0,1.1c0,1.2-0.3,2.9-0.6,4c-0.9,3.2-3.2,6-4.3,7.4
			c-1.3,1.6-2.8,3-4.3,4.4c-1.9,1.7-3.9,3.3-6,4.7c-2.6,1.9-3.5,2.5-5.6,3.9c-1.2,0.9-2.1,1.5-3,2.1c-2.3,1.6-4.5,3.3-6.5,5.2
			c-1.9,1.8-2.8,2.7-3.5,4.3c-0.3,0.6-1.6,3.7-0.3,6.6c0.4,0.9,1,1.7,1.8,2.4c0.7,0.6,1.4,1.2,2.2,1.8l1.7,1H32c0,0-0.4-0.4-0.7-0.7
			C31,76.8,30.7,76.4,30.6,75.9z"/>
		<path class="st2" d="M61.4,27.9c-0.1-0.4-0.4-1.1-0.9-1.9c-0.4-0.7-0.9-1.5-1.7-2.4c0.1,0.2,0.2,0.4,0.3,0.8
			c0.6,1.4,1.1,2.4,1.2,3.8c0.1,0.5,0.1,0.9,0,1.5c0,0.5,0,1.3-0.2,2.4c-0.1,0.7-0.2,1.6-0.6,2.7c-0.4,1.4-1,2.4-1.4,3
			c-0.5,0.8-0.9,1.4-1.4,2.1c-0.2,0.3-0.9,1.2-1.9,2.3c-0.3,0.3-1.3,1.5-2.9,3c-1.2,1.1-2.1,1.8-3.1,2.6c-1.2,1-2.2,1.7-2.6,2
			c-0.8,0.6-1.6,1.2-1.6,1.2c-0.1,0.1-0.4,0.3-0.9,0.6c-0.7,0.5-1,0.7-1.1,0.8c-0.8,0.5-0.7,0.5-1.7,1.1c-0.4,0.3-0.5,0.4-1.4,1
			c-0.2,0.2-0.4,0.3-0.6,0.4c-0.2,0.2-0.5,0.3-0.7,0.5c-6.2,4.8-8.9,10.4-9.1,12.9c-0.1,1.1,0.2,3.9,0.4,5c0.1,0.6,0.4,1.1,0.4,1.1
			c0.1,0.4,0.3,0.8,0.4,1.1c0-0.1-0.1-0.2-0.1-0.4c0-0.1-0.1-0.6-0.1-1.2c0-0.1,0-0.5,0.1-1.2c0.1-0.4,0.2-1.1,0.5-1.8
			c0.7-1.8,1.8-3.1,2.3-3.7c0,0,0.9-1.1,2-2c0.4-0.3,1-0.8,1.4-1.1c0.8-0.6,0.9-0.6,1.6-1.2c1.2-0.9,1.3-1.1,2.4-1.9
			c0.3-0.2,0.5-0.4,0.9-0.7c0.6-0.4,1-0.7,1.6-1.1l1.7-1.1c0.9-0.6,1.5-1,2.3-1.6c0.3-0.2,1.4-1,2.8-2.1c1.2-0.9,1.9-1.4,2.3-1.8
			c0.7-0.6,1.7-1.4,2.8-2.7c0.3-0.4,0.6-0.7,0.8-1c0.3-0.4,0.7-1,1.5-2.2c0.7-1.1,1.2-1.9,1.4-2.3c1-1.6,1.4-2.4,1.8-3.2
			c1.1-2.2,1.3-4.2,1.5-5.7c0.1-1,0.3-2.8,0-5.1C61.8,29.2,61.5,28.2,61.4,27.9z"/>
		<path class="st2" d="M10.3,40.2c0.1,0,0.4,0.1,0.6,0c0.2-0.1,0.2-0.3,0.3-0.5c0.2-0.1,0.3-0.2,0.5-0.2c0.1,0,0.2-0.1,0.3-0.2
			c0.1-0.1,0.2-0.3,0.2-0.3c0,0-0.3,0.3-0.5,0.5c-0.1,0.1-0.4,0.5-0.6,1.3c-0.1,0.6-0.2,1.3-0.3,1.9c0,0.2-0.1,0.6-0.1,1.1
			c-0.1,1.8,0.2,3.8,0.3,4.4c0.2,1,0.4,2.3,0.8,3.7c0.1,0.3,0.3,0.5,0.4,0.8c0.2,0.5,0.3,0.8,0.4,1c0.4,0.7,0.8,1.5,1.3,2.1
			c0.4,0.5,0.7,0.9,0.9,1.2c0.3,0.4,0.5,0.6,0.6,0.7c0.2,0.2,0.4,0.4,0.5,0.5c-0.1,0.1-0.3,0.3-0.5,0.6C14.1,61,14,63.4,14,64.5
			c0,1.7,0.4,2.6,0.5,2.9c0.2,0.5,0.5,0.9,0.7,1.2c-1.6-1-2.6-2-3.2-2.8c-0.6-0.7-1-1.4-1.7-2.6c-0.3-0.4-0.9-1.6-1.4-2.4
			c-1.6-3.1-1.8-11.2-1.8-11.6c0-0.9,0-1.7,0.1-2.6c0.1-0.4,0.2-1.3,0.6-2.4C8.4,42.5,9.5,40.1,10.3,40.2z"/>
		<path class="st2" d="M70.2,41V24.3h4.6v6.8h4v-6.8h4.6V41h-4.6v-7.4h-4V41H70.2z"/>
		<path class="st2" d="M86.9,41V24.3h4.6V41H86.9z"/>
		<path class="st2" d="M94.8,41l0.4-16.7h4.9l2.8,10.5l3-10.5h4.7L111,41h-3.3l-0.4-11.3L104.4,41h-2.9l-3-11.4L98.2,41H94.8z"/>
		<path class="st2" d="M114.3,41V24.3h9.5v2.3h-4.9v4.5h4.2v2.3h-4.2V41L114.3,41z"/>
		<path class="st2" d="M126.2,41V24.3h4.6v14.4h5.3V41L126.2,41z"/>
		<path class="st2" d="M137.1,41l4.4-16.7h5.1l4.3,16.7h-4.2l-0.8-3.7h-3.6l-0.9,3.7H137.1z M142.7,35.3h2.7l-1.4-6.7L142.7,35.3z"
			/>
		<path class="st2" d="M151.8,41l4.5-8.9l-4.3-7.8h4.3l2.7,4.8l2.3-4.8h3.9l-4.1,8.5l4.5,8.1h-4.3l-3-5.2l-2.6,5.2H151.8z"/>
		<g>
			<path class="st2" d="M71.6,43.7v6.7h-1.4v-6.7H71.6z"/>
			<path class="st2" d="M77.5,43.7v6.7h-1.3l-2.1-4.2v4.2h-1.3v-6.7h1.3l2.2,4.2v-4.2H77.5z"/>
			<path class="st2" d="M80,43.7v6.7h-1.4v-6.7H80z M82.5,43.7v1.1h-2.8v-1.1H82.5z M82.2,46.5v1.1h-2.5v-1.1H82.2z"/>
			<path class="st2" d="M88.1,46.5v1.1c0,0.4,0,0.8-0.2,1.2c-0.1,0.3-0.3,0.6-0.5,0.9c-0.2,0.2-0.5,0.4-0.8,0.5
				c-0.3,0.1-0.7,0.2-1,0.2c-0.3,0-0.7-0.1-1-0.2c-0.3-0.1-0.6-0.3-0.8-0.5c-0.2-0.3-0.4-0.6-0.5-0.9c-0.1-0.4-0.2-0.8-0.2-1.2v-1.1
				c0-0.4,0.1-0.9,0.2-1.3c0.1-0.3,0.3-0.6,0.5-0.9c0.2-0.2,0.5-0.4,0.8-0.6c0.3-0.1,0.7-0.2,1-0.2c0.3,0,0.7,0.1,1,0.2
				c0.3,0.1,0.6,0.3,0.8,0.6c0.2,0.3,0.4,0.6,0.5,0.9C88,45.7,88.1,46.1,88.1,46.5z M86.7,47.6v-1.1c0-0.3,0-0.5-0.1-0.8
				c0-0.2-0.1-0.4-0.2-0.6c-0.1-0.1-0.2-0.2-0.3-0.3c-0.1-0.1-0.3-0.1-0.5-0.1c-0.2,0-0.3,0-0.5,0.1c-0.1,0.1-0.3,0.2-0.3,0.3
				c-0.1,0.2-0.2,0.4-0.2,0.6c0,0.3-0.1,0.5-0.1,0.8v1.1c0,0.3,0,0.5,0.1,0.8c0,0.2,0.1,0.4,0.2,0.5c0.1,0.1,0.2,0.2,0.3,0.3
				c0.1,0.1,0.3,0.1,0.5,0.1c0.2,0,0.3,0,0.5-0.1c0.1-0.1,0.3-0.2,0.3-0.3c0.1-0.2,0.2-0.3,0.2-0.5C86.7,48.2,86.7,47.9,86.7,47.6z"
				/>
			<path class="st2" d="M89.1,43.7h2.2c0.4,0,0.8,0.1,1.2,0.2c0.3,0.2,0.6,0.4,0.7,0.7c0.2,0.3,0.3,0.7,0.3,1.1c0,0.3,0,0.6-0.2,0.9
				c-0.1,0.2-0.2,0.5-0.4,0.6c-0.2,0.2-0.4,0.3-0.7,0.4l-0.4,0.2h-1.8v-1.1h1.2c0.2,0,0.3,0,0.5-0.1c0.1-0.1,0.2-0.2,0.3-0.3
				c0.1-0.2,0.1-0.3,0.1-0.5c0-0.2,0-0.4-0.1-0.5c0-0.1-0.1-0.3-0.3-0.4c-0.1-0.1-0.3-0.1-0.5-0.1h-0.9v5.6h-1.4V43.7z M92.2,50.4
				l-1.3-3h1.4l1.3,2.9v0.1L92.2,50.4z"/>
			<path class="st2" d="M94.4,43.7h1.2l0.2,4.4v2.3h-1.3V43.7z M94.9,43.7h1.2l1.4,4.6l1.4-4.6h1.1l-2,6.7h-1L94.9,43.7z M99.5,43.7
				h1.2v6.7h-1.3v-2.3L99.5,43.7z"/>
			<path class="st2" d="M104.3,44.9l-1.5,5.5h-1.5l2.1-6.7h0.9L104.3,44.9z M105.5,47.9V49h-3.1v-1.1H105.5z M105.5,50.4l-1.5-5.5
				l-0.1-1.2h0.9l2.2,6.7L105.5,50.4z"/>
			<path class="st2" d="M111.5,43.7v1.1h-4.8v-1.1H111.5z M109.8,43.7v6.7h-1.4v-6.7H109.8z"/>
			<path class="st2" d="M113.7,43.7v6.7h-1.4v-6.7H113.7z"/>
			<path class="st2" d="M119.7,46.5v1.1c0,0.4,0,0.8-0.2,1.2c-0.1,0.3-0.3,0.6-0.5,0.9c-0.2,0.2-0.5,0.4-0.8,0.5
				c-0.3,0.1-0.7,0.2-1,0.2c-0.3,0-0.7-0.1-1-0.2c-0.3-0.1-0.6-0.3-0.8-0.5c-0.2-0.3-0.4-0.6-0.5-0.9c-0.1-0.4-0.2-0.8-0.2-1.2v-1.1
				c0-0.4,0.1-0.9,0.2-1.3c0.1-0.3,0.3-0.6,0.5-0.9c0.2-0.2,0.5-0.4,0.8-0.6c0.3-0.1,0.7-0.2,1-0.2c0.3,0,0.7,0.1,1,0.2
				c0.3,0.1,0.6,0.3,0.8,0.6c0.2,0.3,0.4,0.6,0.5,0.9C119.7,45.7,119.7,46.1,119.7,46.5z M118.3,47.6v-1.1c0-0.3,0-0.5-0.1-0.8
				c0-0.2-0.1-0.4-0.2-0.6c-0.1-0.1-0.2-0.2-0.3-0.3c-0.1-0.1-0.3-0.1-0.5-0.2c-0.2,0-0.3,0-0.5,0.1c-0.1,0.1-0.3,0.2-0.3,0.3
				c-0.1,0.2-0.2,0.4-0.2,0.6c0,0.3-0.1,0.5-0.1,0.8v1.1c0,0.3,0,0.5,0.1,0.8c0,0.2,0.1,0.4,0.2,0.5c0.1,0.1,0.2,0.2,0.3,0.3
				c0.1,0.1,0.3,0.2,0.5,0.2c0.2,0,0.3,0,0.5-0.1c0.1-0.1,0.3-0.2,0.3-0.3c0.1-0.2,0.2-0.3,0.2-0.5
				C118.3,48.2,118.3,47.9,118.3,47.6z"/>
			<path class="st2" d="M125.5,43.7v6.7h-1.3l-2.2-4.2v4.2h-1.3v-6.7h1.3l2.2,4.2v-4.2H125.5z"/>
			<path class="st2" d="M133,43.7v1.1h-4.8v-1.1H133z M131.3,43.7v6.7h-1.4v-6.7H131.3z"/>
			<path class="st2" d="M135.2,43.7v6.7h-1.4v-6.7H135.2z M137.8,43.7v1.1h-3v-1.1H137.8z M137.4,46.4v1.1h-2.6v-1.1H137.4z
				 M137.8,49.3v1.1h-3v-1.1H137.8z"/>
			<path class="st2" d="M141.8,48.2h1.4c0,0.4-0.1,0.9-0.3,1.3c-0.2,0.3-0.5,0.6-0.8,0.8c-0.4,0.2-0.8,0.3-1.3,0.3
				c-0.3,0-0.7-0.1-1-0.2c-0.3-0.1-0.6-0.3-0.8-0.5c-0.2-0.3-0.4-0.6-0.5-0.9c-0.1-0.4-0.2-0.8-0.2-1.2v-1.1c0-0.4,0-0.8,0.2-1.2
				c0.1-0.3,0.3-0.6,0.5-0.9c0.2-0.2,0.5-0.4,0.8-0.5c0.3-0.1,0.7-0.2,1-0.2c0.4,0,0.9,0.1,1.3,0.3c0.3,0.2,0.6,0.5,0.8,0.8
				c0.2,0.4,0.3,0.8,0.3,1.3h-1.4c0-0.3,0-0.5-0.1-0.8c0-0.2-0.2-0.3-0.3-0.4c-0.2-0.1-0.4-0.1-0.6-0.1c-0.2,0-0.3,0-0.5,0.1
				c-0.1,0.1-0.3,0.2-0.3,0.3c-0.1,0.2-0.2,0.4-0.2,0.5c0,0.3-0.1,0.5-0.1,0.8v1.2c0,0.3,0,0.5,0.1,0.8c0,0.2,0.1,0.4,0.2,0.5
				c0.1,0.1,0.2,0.2,0.3,0.3c0.2,0.1,0.3,0.1,0.5,0.1c0.2,0,0.4,0,0.6-0.1c0.2-0.1,0.3-0.2,0.3-0.4
				C141.8,48.6,141.8,48.4,141.8,48.2z"/>
			<path class="st2" d="M145.5,43.7v6.7h-1.4v-6.7H145.5z M147.9,46.4v1.1h-2.8v-1.1H147.9z M148.9,43.7v6.7h-1.4v-6.7H148.9z"/>
			<path class="st2" d="M154.8,43.7v6.7h-1.3l-2.2-4.2v4.2H150v-6.7h1.3l2.1,4.2v-4.2H154.8z"/>
			<path class="st2" d="M160.7,46.5v1.1c0,0.4-0.1,0.8-0.2,1.2c-0.1,0.3-0.3,0.6-0.5,0.9c-0.2,0.2-0.5,0.4-0.8,0.5
				c-0.3,0.1-0.7,0.2-1,0.2c-0.3,0-0.7-0.1-1-0.2c-0.3-0.1-0.6-0.3-0.8-0.5c-0.2-0.3-0.4-0.6-0.5-0.9c-0.1-0.4-0.2-0.8-0.2-1.2v-1.1
				c0-0.4,0.1-0.9,0.2-1.3c0.1-0.3,0.3-0.6,0.5-0.9c0.2-0.2,0.5-0.4,0.8-0.6c0.3-0.1,0.7-0.2,1-0.2c0.3,0,0.7,0.1,1,0.2
				c0.3,0.1,0.6,0.3,0.8,0.6c0.2,0.3,0.4,0.6,0.5,0.9C160.7,45.7,160.7,46.1,160.7,46.5z M159.4,47.6v-1.1c0-0.3,0-0.5-0.1-0.8
				c0-0.2-0.1-0.4-0.2-0.6c-0.1-0.1-0.2-0.2-0.3-0.3c-0.1-0.1-0.3-0.1-0.5-0.1c-0.2,0-0.3,0-0.5,0.1c-0.1,0.1-0.3,0.2-0.3,0.3
				c-0.1,0.2-0.2,0.4-0.2,0.6c0,0.3-0.1,0.5-0.1,0.8v1.1c0,0.3,0,0.5,0.1,0.8c0,0.2,0.1,0.4,0.2,0.5c0.1,0.1,0.2,0.2,0.3,0.3
				c0.1,0.1,0.3,0.1,0.5,0.1c0.2,0,0.3,0,0.5-0.1c0.1-0.1,0.3-0.2,0.3-0.3c0.1-0.2,0.2-0.3,0.2-0.5
				C159.3,48.2,159.4,47.9,159.4,47.6z"/>
			<path class="st2" d="M163.1,43.7v6.7h-1.4v-6.7H163.1z M165.6,49.3v1.1h-2.8v-1.1H165.6z"/>
			<path class="st2" d="M170.9,46.5v1.1c0,0.4-0.1,0.8-0.2,1.2c-0.1,0.3-0.3,0.6-0.5,0.9c-0.2,0.2-0.5,0.4-0.8,0.5
				c-0.3,0.1-0.7,0.2-1,0.2c-0.3,0-0.7-0.1-1-0.2c-0.3-0.1-0.6-0.3-0.8-0.5c-0.2-0.3-0.4-0.6-0.5-0.9c-0.1-0.4-0.2-0.8-0.2-1.2v-1.1
				c0-0.4,0.1-0.9,0.2-1.3c0.1-0.3,0.3-0.6,0.5-0.9c0.2-0.2,0.5-0.4,0.8-0.6c0.3-0.1,0.7-0.2,1-0.2c0.3,0,0.7,0.1,1,0.2
				c0.3,0.1,0.6,0.3,0.8,0.6c0.2,0.3,0.4,0.6,0.5,0.9C170.8,45.7,170.9,46.1,170.9,46.5z M169.5,47.6v-1.1c0-0.3,0-0.5-0.1-0.8
				c0-0.2-0.1-0.4-0.2-0.6c-0.1-0.1-0.2-0.2-0.3-0.3c-0.1-0.1-0.3-0.1-0.5-0.1c-0.2,0-0.3,0-0.5,0.1c-0.1,0.1-0.3,0.2-0.3,0.3
				c-0.1,0.2-0.2,0.4-0.2,0.6c-0.1,0.3-0.1,0.5-0.1,0.8v1.1c0,0.3,0,0.5,0.1,0.8c0,0.2,0.1,0.4,0.2,0.5c0.1,0.1,0.2,0.2,0.3,0.3
				c0.1,0.1,0.3,0.1,0.5,0.1c0.2,0,0.3,0,0.5-0.1c0.1-0.1,0.3-0.2,0.3-0.3c0.1-0.2,0.2-0.3,0.2-0.5
				C169.5,48.2,169.5,47.9,169.5,47.6z"/>
			<path class="st2" d="M176.6,46.9v2.8c-0.1,0.1-0.3,0.2-0.4,0.4c-0.2,0.1-0.5,0.3-0.7,0.4c-0.4,0.1-0.7,0.2-1.1,0.1
				c-0.4,0-0.7-0.1-1-0.2c-0.3-0.1-0.6-0.3-0.8-0.5c-0.2-0.3-0.4-0.6-0.5-0.9c-0.1-0.4-0.2-0.8-0.2-1.3v-1.1c0-0.4,0.1-0.9,0.2-1.3
				c0.1-0.3,0.3-0.6,0.5-0.9c0.2-0.2,0.5-0.4,0.8-0.5c0.3-0.1,0.7-0.2,1-0.2c0.4,0,0.9,0.1,1.3,0.2c0.3,0.2,0.6,0.5,0.8,0.8
				c0.2,0.4,0.3,0.8,0.3,1.2h-1.3c0-0.2-0.1-0.5-0.1-0.7c-0.1-0.1-0.2-0.3-0.3-0.3c-0.2-0.1-0.4-0.1-0.6-0.1c-0.2,0-0.3,0-0.5,0.1
				c-0.1,0.1-0.3,0.2-0.3,0.3c-0.1,0.2-0.2,0.3-0.2,0.5c0,0.3-0.1,0.5-0.1,0.8v1.1c0,0.3,0,0.5,0.1,0.8c0,0.2,0.1,0.4,0.2,0.5
				c0.1,0.1,0.2,0.2,0.4,0.3c0.2,0.1,0.4,0.1,0.5,0.1c0.1,0,0.3,0,0.4,0c0.1,0,0.2-0.1,0.2-0.1c0,0,0.1-0.1,0.2-0.1v-1.2h-0.9v-1
				L176.6,46.9z"/>
			<path class="st2" d="M179,43.7v6.7h-1.4v-6.7H179z"/>
			<path class="st2" d="M181.5,43.7v6.7h-1.4v-6.7H181.5z M184.1,43.7v1.1h-3v-1.1H184.1z M183.7,46.4v1.1h-2.6v-1.1H183.7z
				 M184.1,49.3v1.1h-3v-1.1H184.1z"/>
			<path class="st2" d="M187.8,48.6c0-0.1,0-0.2,0-0.3c0-0.1-0.1-0.2-0.1-0.3c-0.1-0.1-0.2-0.2-0.3-0.2c-0.2-0.1-0.3-0.2-0.5-0.3
				c-0.3-0.1-0.5-0.2-0.7-0.3c-0.2-0.1-0.4-0.3-0.6-0.4c-0.2-0.2-0.3-0.3-0.4-0.6c-0.1-0.2-0.2-0.5-0.2-0.8c0-0.3,0-0.5,0.2-0.8
				c0.1-0.2,0.3-0.4,0.4-0.6c0.2-0.2,0.4-0.3,0.7-0.4c0.3-0.1,0.6-0.1,0.9-0.1c0.4,0,0.8,0.1,1.1,0.3c0.3,0.2,0.6,0.4,0.8,0.7
				c0.2,0.3,0.3,0.7,0.3,1.1h-1.4c0-0.2,0-0.3-0.1-0.5c0-0.1-0.1-0.3-0.3-0.3c-0.1-0.1-0.3-0.1-0.5-0.1c-0.2,0-0.3,0-0.4,0.1
				c-0.1,0.1-0.2,0.2-0.3,0.3c-0.1,0.1-0.1,0.3-0.1,0.4c0,0.1,0,0.2,0.1,0.3c0.1,0.1,0.1,0.2,0.2,0.2c0.1,0.1,0.2,0.1,0.3,0.2
				l0.4,0.2c0.3,0.1,0.6,0.2,0.9,0.4c0.2,0.1,0.4,0.3,0.6,0.5c0.2,0.2,0.3,0.4,0.4,0.6c0.1,0.3,0.1,0.5,0.1,0.8c0,0.3,0,0.5-0.1,0.8
				c-0.1,0.2-0.2,0.4-0.4,0.6c-0.2,0.2-0.4,0.3-0.7,0.4c-0.3,0.1-0.6,0.1-0.9,0.1c-0.3,0-0.6,0-0.9-0.1c-0.3-0.1-0.5-0.2-0.8-0.4
				c-0.2-0.2-0.4-0.4-0.5-0.7c-0.1-0.3-0.2-0.6-0.2-1h1.4c0,0.2,0,0.3,0.1,0.5c0,0.1,0.1,0.2,0.2,0.3c0.1,0.1,0.2,0.1,0.3,0.2
				c0.1,0,0.3,0.1,0.4,0.1c0.2,0,0.3,0,0.4-0.1c0.1-0.1,0.2-0.2,0.2-0.3C187.9,48.9,187.8,48.7,187.8,48.6z"/>
		</g>
	</g>
	<polygon class="st3" points="27.5,39.4 37.1,34.7 35.4,26.5 26.9,31.4 	"/>
	<path class="st3" d="M34,45L33.4,9.1V9.1c0.2-1.2,0.7-2.3,1.4-3.3c0.7-1,1.7-1.7,2.8-2.3c1.6-0.8,3.3-1.2,5-1.2c0.1,0,0.2,0,0.3,0
		c0.1,0,0.2,0.1,0.3,0.2c0.1,0.1,0.1,0.2,0.2,0.2c0,0.1,0.1,0.2,0.1,0.3c-0.1,11.9-0.2,23.8-0.2,35.7c0,0.1,0,0.2-0.1,0.3
		c0,0.1-0.1,0.2-0.2,0.2l-7.6,6.3c-0.1,0.1-0.3,0.2-0.4,0.2c-0.2,0-0.3,0-0.4,0c-0.1-0.1-0.3-0.1-0.4-0.3C34.1,45.3,34,45.2,34,45z"
		/>
	
		<linearGradient id="SVGID_3_" gradientUnits="userSpaceOnUse" x1="20.9373" y1="68.7177" x2="20.9373" y2="23.0838" gradientTransform="matrix(1 0 0 -1 0 80)">
		<stop  offset="0.4087" style="stop-color:#239AD9"/>
		<stop  offset="0.5961" style="stop-color:#166DB5"/>
	</linearGradient>
	<path class="st4" d="M15.8,56.2l-0.6-37.7v-0.1c0.2-1.2,0.8-2.4,1.6-3.4c0.8-1,1.9-1.8,3.2-2.4c1.8-0.8,3.7-1.2,5.7-1.2
		c0.1,0,0.2,0,0.4,0c0.1,0,0.2,0.1,0.3,0.2c0.1,0.1,0.2,0.2,0.2,0.3c0.1,0.1,0.1,0.2,0.1,0.3c-0.1,12.5-0.2,25-0.3,37.5
		c0,0.1,0,0.2-0.1,0.3c-0.1,0.1-0.1,0.2-0.2,0.2l-8.7,6.6c-0.1,0.1-0.3,0.2-0.5,0.2c-0.2,0-0.3,0-0.5,0c-0.2-0.1-0.3-0.1-0.4-0.3
		C15.9,56.5,15.8,56.3,15.8,56.2z"/>
	<path class="st3" d="M32.4,46.4C32.3,34,32.2,21.6,32,9.3V9.2c0.2-1.2,0.7-2.3,1.6-3.3c0.8-1,1.9-1.8,3.1-2.3
		c1.7-0.8,3.6-1.2,5.6-1.2c0.1,0,0.2,0,0.3,0c0.1,0,0.2,0.1,0.3,0.2c0.1,0.1,0.2,0.2,0.2,0.2c0.1,0.1,0.1,0.2,0.1,0.3
		c-0.1,12.1-0.2,24.3-0.3,36.4c0,0.1,0,0.2-0.1,0.3c-0.1,0.1-0.1,0.2-0.2,0.2l-8.4,6.4c-0.1,0.1-0.3,0.2-0.5,0.2c-0.2,0-0.3,0-0.5,0
		C33,46.5,32.7,46.5,32.4,46.4z"/>
	<path class="st3" d="M18,57.1L17.4,21v-0.1c0.2-1.2,0.7-2.3,1.6-3.3c0.8-1,1.9-1.8,3.1-2.3c1.7-0.8,3.6-1.2,5.6-1.2
		c0.1,0,0.2,0,0.3,0s0.2,0.1,0.3,0.2c0.1,0.1,0.2,0.2,0.2,0.2c0.1,0.1,0.1,0.2,0.1,0.3c-0.1,12-0.2,23.9-0.3,35.9
		c0,0.1,0,0.2-0.1,0.3c-0.1,0.1-0.1,0.2-0.2,0.2l-8.4,6.3c-0.1,0.1-0.3,0.2-0.5,0.2c-0.2,0-0.3,0-0.5,0c-0.2-0.1-0.3-0.1-0.4-0.3
		C18.1,57.4,18,57.3,18,57.1z"/>
	<path class="st3" d="M23.3,74.7c-0.3-0.3-0.5-0.6-0.7-0.9c-0.2-0.5-0.4-1-0.5-1.5c-0.2-0.7-0.2-1.5-0.2-2.2c0-1.2,0.2-2.4,0.6-3.6
		c1-2.9,3.5-4.8,4.9-5.8c0.7-0.5,1.5-1.1,2.7-2.1c0.2-0.2,1-0.9,1.6-1.3c1.7-1.3,2.5-1.7,3.9-2.8c0,0,0.7-0.5,1.6-1.2
		c2.1-1.6,4.3-3.5,5.5-4.6c5.1-4.5,4.6-3.9,5.3-4.7c1.6-1.7,3-3.4,4.3-5.3c1.2-1.6,2.3-3.2,3.1-5c1-1.9,1.5-4,1.5-6.2
		c0-2.5-0.8-4.9-2.1-7c-0.9-1.4-1.9-2.6-3.1-3.8c-0.8-0.8-1.6-1.6-2.5-2.3c-2.3-1.7-4.8-2.7-4.9-2.6c-0.1,0.1,0.6,0.4,1.4,1.1
		c1,0.9,1.7,2.1,2.1,3.3c0.8,2.2,1,4.5,0.8,6.8c-0.2,2-0.6,3.9-1.3,5.8c-0.2,0.7-0.5,1.7-1,2.8c0,0-1,2.2-2.5,4.2
		c-1.4,1.8-4,4.4-11.6,10.1c-1.6,1.2-6.9,5.1-9.1,6.7c-0.9,0.6-1.1,0.8-1.8,1.4c-0.8,0.5-1.5,1.1-2.1,1.7c-0.9,0.8-1.7,1.7-2.4,2.7
		c-1,1.5-3.1,7-0.1,11.6c1.2,1.7,2.8,3.2,4.7,4.2c0.9,0.6,1.9,1.1,3,1.5C24.1,75.4,23.7,75.1,23.3,74.7z"/>
	<path class="st3" d="M24,54.4c-1,1.4-2.3,3.3-3.4,5.6c0,0-1,2.1-1.2,4.1c-0.1,0.9-0.1,1.7,0,2.6c0.1,0.9,0.4,1.8,0.7,2.7
		c0.5,1.3,1.2,2.6,2,3.8c0.4,0.7,0.9,1.4,1.5,2c0,0-0.6-0.9-0.6-0.9c-0.3-0.5-0.5-1-0.6-1.6c-0.2-0.8-0.2-1.6-0.2-2.4
		c0-0.4,0.1-0.8,0.1-1.2c0.1-0.9,0.4-1.7,0.7-2.6c0,0,0.1-0.3,0.2-0.5c0.8-1.5,1.8-2.8,3.1-3.9c1.3-1.2,2.6-2.1,4-3.3
		c0.1-0.1,0.5-0.5,1.1-0.9c0.2-0.2,0.5-0.4,1-0.8c2.6-2,2-1.4,5.4-4c1.8-1.3,3.4-2.8,5-4.3c2.1-2.1,2.6-3.5,4.2-6.8
		c1.3-2.7,2.2-5.4,2.9-8.3c0.6-2.6,0.9-5.3,1-8c0-0.7,0-1.5-0.1-2.2c-0.1-1-0.3-2-0.7-3c-0.2-0.5-0.5-1-0.7-1.5
		c-0.4-0.8-0.8-1.5-1.2-2.2c0.1,0.3,0.2,0.7,0.3,1.2c0.2,0.7,0.3,1.7,0.4,2.8c0,1.1,0,1.9-0.1,2.6c-0.1,1.3-0.4,2.3-0.5,3
		c-0.1,0.3-0.4,1.6-0.9,3.2c-0.2,0.7-0.5,1.5-1,2.5c-0.8,1.6-1.5,2.7-1.8,3.1C43.9,36,43.4,36.6,43,37c-0.8,0.9-1.5,1.6-2.1,2.1
		c-1.1,1-2,1.8-2.7,2.4c-0.3,0.2-0.5,0.4-0.7,0.6C36.1,43.2,35,44,33.6,45c-0.7,0.5-2.2,1.6-2.5,1.9c0,0-0.3,0.2-0.6,0.4
		c-0.1,0-0.1,0.1-0.2,0.1C27.4,49.7,25.7,52.1,24,54.4z"/>
</g>
<g class="st5">
	<defs>
		<rect id="SVGID_4_" x="-6.9" y="-101.9" width="184.6" height="75.6"/>
	</defs>
	<clipPath id="SVGID_5_" class="st6">
		<use xlink:href="#SVGID_4_"  style="overflow:visible;"/>
	</clipPath>
	<g class="st7">
		<linearGradient id="SVGID_6_" gradientUnits="userSpaceOnUse" x1="16.2532" y1="-70.9993" x2="24.9586" y2="-70.9993">
			<stop  offset="0.2572" style="stop-color:#239AD9"/>
			<stop  offset="0.5843" style="stop-color:#166DB5"/>
		</linearGradient>
		<path class="st8" d="M17-65.9l-0.7-5.7c0-0.1,0-0.2,0.1-0.3c0-0.1,0.1-0.2,0.2-0.2l6-4.4c0.6-0.5,1.9-0.2,1.9,0.4l0.5,6.6
			c0,0.1,0,0.2-0.1,0.3c-0.1,0.1-0.1,0.2-0.2,0.2l-5.8,3.5C18.2-65.1,17.1-65.3,17-65.9z"/>
		<linearGradient id="SVGID_7_" gradientUnits="userSpaceOnUse" x1="20.7983" y1="-80.1578" x2="31.1103" y2="-80.1578">
			<stop  offset="0" style="stop-color:#FFFFFF"/>
			<stop  offset="1" style="stop-color:#000000"/>
		</linearGradient>
		<path class="st9" d="M21.3-58.1l-0.5-37.8c0,0,0-0.1,0-0.1c0.2-1.2,0.6-2.4,1.4-3.4c0.7-1,1.7-1.9,2.9-2.5c1.5-0.8,3.3-1.2,5-1.2
			c0.1,0,0.3,0,0.4,0c0.1,0,0.2,0.1,0.3,0.2c0.1,0.1,0.2,0.2,0.2,0.3c0.1,0.1,0.1,0.2,0.1,0.3C31-90.7,31-79.1,30.9-67.5l0.2,3.1
			c0,0.1,0,0.2-0.1,0.3c0,0.1-0.1,0.2-0.2,0.3L23-57.5c-0.1,0.1-0.3,0.2-0.5,0.2c-0.2,0-0.4,0-0.5,0c-0.2-0.1-0.3-0.2-0.4-0.3
			C21.4-57.7,21.4-57.9,21.3-58.1z"/>
		<linearGradient id="SVGID_8_" gradientUnits="userSpaceOnUse" x1="-5.5661" y1="-51.1139" x2="4.6208" y2="-51.1139">
			<stop  offset="1" style="stop-color:#F2B620"/>
			<stop  offset="1" style="stop-color:#C69D33"/>
		</linearGradient>
		<path class="st10" d="M3.8-35.6c0,0-0.2-0.2-0.4-0.6c-0.1-0.1-0.1-0.2-0.2-0.5c-0.3-0.8-0.5-1.6-0.5-1.6c-0.3-1.7,0-3.4,0.1-3.6
			c0.1-0.7,0.3-1.7,1-2.8c0.3-0.5,0.6-0.9,0.9-1.2c-1-0.9-2.2-2.3-3.1-4.1c-1-1.9-1.3-3.4-1.4-3.7c-0.3-1.5-0.3-3-0.3-3.2
			c0,0,0,0,0,0c0-0.9,0.1-1.7,0.4-3.3c0.1-1,0.3-1.9,0.5-2.7C0.9-64.2,1-64.7,1.2-65c0.2-0.7,0.5-1.2,0.7-1.6
			c-0.1,0-0.2,0.1-0.2,0.2c-0.2,0.2-0.4,0.3-0.5,0.4c-0.4,0.3-0.7,0.4-0.9,0.6c-0.5,0.3-1,0.7-1.2,0.8c-0.7,0.5-1.6,1.3-2.3,2.4
			c-0.7,1-1,1.9-1.3,3c-0.3,0.9-0.9,2.6-0.9,4.9c0,0.8-0.1,3.5,0.9,6.9c0.3,1.2,0.9,3.1,2.2,5.2c0.9,1.5,2,2.7,2.1,2.8
			c0.3,0.4,0.6,0.7,0.9,0.9c0,0,0.3,0.3,0.5,0.6C2-37,3.7-35.6,3.8-35.6z"/>
		<linearGradient id="SVGID_9_" gradientUnits="userSpaceOnUse" x1="7.8288" y1="-69.1507" x2="18.7856" y2="-69.1507">
			<stop  offset="0.4087" style="stop-color:#239AD9"/>
			<stop  offset="0.5961" style="stop-color:#166DB5"/>
		</linearGradient>
		<path class="st11" d="M8.4-48L7.8-84.2v-0.1c0.2-1.2,0.7-2.3,1.5-3.3c0.8-1,1.8-1.8,3-2.3c1.7-0.8,3.6-1.2,5.5-1.2
			c0.1,0,0.2,0,0.3,0c0.1,0,0.2,0.1,0.3,0.2c0.1,0.1,0.2,0.2,0.2,0.2c0.1,0.1,0.1,0.2,0.1,0.3c-0.1,12-0.2,24-0.3,36
			c0,0.1,0,0.2-0.1,0.3c0,0.1-0.1,0.2-0.2,0.2L10-47.4c-0.1,0.1-0.3,0.2-0.4,0.2c-0.2,0-0.3,0-0.5,0c-0.2-0.1-0.3-0.1-0.4-0.3
			C8.5-47.7,8.4-47.8,8.4-48z"/>
		<linearGradient id="SVGID_10_" gradientUnits="userSpaceOnUse" x1="-4.5435" y1="-50.7064" x2="4.3008" y2="-50.7064">
			<stop  offset="1" style="stop-color:#F2B620"/>
			<stop  offset="1" style="stop-color:#C69D33"/>
		</linearGradient>
		<path class="st12" d="M-0.8-63.9c0.3-0.2,0.5-0.3,0.7-0.6c0.2-0.3,0.2-0.5,0.5-0.8c0.3-0.3,0.7-0.5,0.8-0.5
			c0.1,0.1-0.1,0.2-0.3,0.7c-0.1,0.2-0.1,0.4-0.2,0.7c-0.1,0.3-0.2,0.6-0.3,1.2c-0.2,1-0.1,1-0.4,2.3c-0.1,0.3-0.1,0.8-0.2,1.5
			c0,0.1,0,0.2,0,0.4c0,0.2-0.2,1.6-0.2,2.7c0.1,2,0.7,3.9,1.5,5.7c0.3,0.7,1.2,1.9,1.9,3.2c0.3,0.5,1.2,1,1.4,1.3
			c-0.5,0.8-1,1.9-1.4,3.3c0,0-0.4,1.5-0.4,3.3c0,0.4,0,1,0.2,1.7C2.8-37.4,2.9-37.1,3-37c0.1,0.4,0.3,0.7,0.4,0.8
			c0.2,0.3,0.3,0.5,0.3,0.5c0,0-0.2-0.2-0.3-0.3c-0.5-0.5-0.8-0.6-1.4-1.1c0,0-0.4-0.3-1.3-1c-0.7-0.6-2.1-1.8-3.2-3.8
			c-0.2-0.4-0.4-0.8-0.7-1.5c-0.5-1.2-0.9-2.4-1.1-3.1c-0.3-1-0.2-2.7,0.1-6c0.3-3.8,0.5-4.4,0.7-4.8c0.1-0.2,0.5-1.1,0.9-2.3
			c0.2-0.8,0.3-1.2,0.4-1.5c0.1-0.8,0-0.8,0.2-1.2C-1.8-63.1-1.1-63.7-0.8-63.9z"/>
		<linearGradient id="SVGID_11_" gradientUnits="userSpaceOnUse" x1="14.1884" y1="-54.7919" x2="53.0457" y2="-54.7919">
			<stop  offset="0.8752" style="stop-color:#F2B620"/>
			<stop  offset="1" style="stop-color:#F2B620"/>
			<stop  offset="1" style="stop-color:#C69D33"/>
		</linearGradient>
		<path class="st13" d="M19.1-28.3c-0.3-0.8-0.4-1.7-0.3-2.5c0.1-0.7,0.2-1.3,0.5-1.9c0.3-0.8,0.6-1.5,1-2.2c0.4-0.7,0.9-1.4,1.5-2
			c0.6-0.7,1.2-1.3,1.9-1.9c0.7-0.6,1.3-1,1.8-1.4c0.9-0.6,2.1-1.6,3.7-2.8l0.1,0l2.8-1.9c1.7-1.2,2.7-1.9,4-2.8
			c1.7-1.2,2.9-2.2,4-3c1.8-1.4,2.7-2.1,3.5-2.8c1.6-1.4,3-2.9,4.2-4.5c1.4-1.8,2.3-3.4,2.5-3.9c0.8-1.4,1.8-3.5,2.3-6.3
			c0.3-1.8,0.8-4.1-0.1-6.8c-0.7-2.1-1.9-3.7-2.2-4.1c-0.5-0.6-0.9-1.1-1.3-1.4c-0.3-0.3-0.8-0.8-1.4-1.3c-0.9-0.7-1.8-1.3-1.8-1.2
			c0,0,0.2,0.1,0.4,0.5c0.1,0.1,0.1,0.2,0.3,0.5c0.1,0.2,0.2,0.5,0.4,0.8c0.3,0.5,0.5,0.9,0.7,1.2c0.4,0.8,0.7,1.5,0.9,2.1
			c0.2,0.6,0.3,0.9,0.4,1.1c0.1,0.6,0.1,1.1,0.2,1.9c0,0.1,0,0.6,0,1.1c0,1.2-0.3,2.9-0.6,4c-0.9,3.2-3.2,6-4.3,7.4
			c-1.3,1.6-2.8,3-4.3,4.4c-1.9,1.7-3.9,3.3-6,4.7c-2.6,1.9-3.5,2.5-5.6,3.9c-1.2,0.9-2.1,1.5-3,2.1c-2.3,1.6-4.5,3.3-6.5,5.2
			c-1.9,1.8-2.8,2.7-3.5,4.3c-0.3,0.6-1.6,3.7-0.3,6.6c0.4,0.9,1,1.7,1.8,2.4c0.7,0.6,1.4,1.2,2.2,1.8l1.7,1h0.1
			c0,0-0.4-0.4-0.7-0.7C19.5-27.4,19.3-27.9,19.1-28.3z"/>
		<linearGradient id="SVGID_12_" gradientUnits="userSpaceOnUse" x1="17.949" y1="-29.4399" x2="52.4846" y2="-76.9741">
			<stop  offset="8.291457e-02" style="stop-color:#C69D33"/>
			<stop  offset="0.2047" style="stop-color:#C89E32"/>
			<stop  offset="0.2485" style="stop-color:#CFA22F"/>
			<stop  offset="0.2798" style="stop-color:#DAA92A"/>
			<stop  offset="0.3049" style="stop-color:#EBB223"/>
			<stop  offset="0.3125" style="stop-color:#F2B620"/>
			<stop  offset="0.677" style="stop-color:#F2B620"/>
			<stop  offset="0.7991" style="stop-color:#C69D33"/>
		</linearGradient>
		<path class="st14" d="M49.9-76.3c-0.1-0.4-0.4-1.1-0.9-1.9c-0.4-0.7-0.9-1.5-1.7-2.4c0.1,0.2,0.2,0.4,0.3,0.8
			c0.6,1.4,1.1,2.4,1.2,3.8c0.1,0.5,0.1,0.9,0,1.5c0,0.5,0,1.3-0.2,2.4c-0.1,0.7-0.2,1.6-0.6,2.7c-0.4,1.4-1,2.4-1.4,3
			c-0.5,0.8-0.9,1.4-1.4,2.1c-0.2,0.3-0.9,1.2-1.9,2.3c-0.3,0.3-1.3,1.5-2.9,3c-1.2,1.1-2.1,1.8-3.1,2.6c-1.2,1-2.2,1.7-2.6,2
			c-0.8,0.6-1.6,1.2-1.6,1.2c-0.1,0.1-0.4,0.3-0.9,0.6c-0.7,0.5-1,0.7-1.1,0.8c-0.8,0.5-0.7,0.5-1.7,1.1c-0.4,0.3-0.5,0.4-1.4,1
			c-0.2,0.2-0.4,0.3-0.6,0.4c-0.2,0.2-0.5,0.3-0.7,0.5C20.7-44,18-38.4,17.8-35.9c-0.1,1.1,0.2,3.9,0.4,5c0.1,0.6,0.4,1.1,0.4,1.1
			c0.1,0.4,0.3,0.8,0.4,1.1c0-0.1-0.1-0.2-0.1-0.4c0-0.1-0.1-0.6-0.1-1.2c0-0.1,0-0.5,0.1-1.2c0.1-0.4,0.2-1.1,0.5-1.8
			c0.7-1.8,1.8-3.1,2.3-3.7c0,0,0.9-1.1,2-2c0.4-0.3,1-0.8,1.4-1.1c0.8-0.6,0.9-0.6,1.6-1.2c1.2-0.9,1.3-1.1,2.4-1.9
			c0.3-0.2,0.5-0.4,0.9-0.7c0.6-0.4,1-0.7,1.6-1.1l1.7-1.1c0.9-0.6,1.5-1,2.3-1.6c0.3-0.2,1.4-1,2.8-2.1c1.2-0.9,1.9-1.4,2.3-1.8
			c0.7-0.6,1.7-1.4,2.8-2.7c0.3-0.4,0.6-0.7,0.8-1c0.3-0.4,0.7-1,1.5-2.2c0.7-1.1,1.2-1.9,1.4-2.3c1-1.6,1.4-2.4,1.8-3.2
			c1.1-2.2,1.3-4.2,1.5-5.7c0.1-1,0.3-2.8,0-5.1C50.4-75,50-76,49.9-76.3z"/>
		<linearGradient id="SVGID_13_" gradientUnits="userSpaceOnUse" x1="-5.2594" y1="-61.8686" x2="8.3489" y2="-38.2983">
			<stop  offset="0.3914" style="stop-color:#F2B620"/>
			<stop  offset="0.5845" style="stop-color:#C69D33"/>
		</linearGradient>
		<path class="st15" d="M-1.1-64c0.1,0,0.4,0.1,0.6,0c0.2-0.1,0.2-0.3,0.3-0.5c0.2-0.1,0.3-0.2,0.5-0.2c0.1,0,0.2-0.1,0.3-0.2
			c0.1-0.1,0.2-0.3,0.2-0.3c0,0-0.3,0.3-0.5,0.5c-0.1,0.1-0.4,0.5-0.6,1.3c-0.1,0.6-0.2,1.3-0.3,1.9c0,0.2-0.1,0.6-0.1,1.1
			c-0.1,1.8,0.2,3.8,0.3,4.4c0.2,1,0.4,2.3,0.8,3.7c0.1,0.3,0.3,0.5,0.4,0.8c0.2,0.5,0.3,0.8,0.4,1c0.4,0.7,0.8,1.5,1.3,2.1
			c0.4,0.5,0.7,0.9,0.9,1.2c0.3,0.4,0.5,0.6,0.6,0.7c0.2,0.2,0.4,0.4,0.5,0.5c-0.1,0.1-0.3,0.3-0.5,0.6c-1.6,2.1-1.6,4.6-1.6,5.7
			c0,1.7,0.4,2.6,0.5,2.9c0.2,0.5,0.5,0.9,0.7,1.2c-1.6-1-2.6-2-3.2-2.8c-0.6-0.7-1-1.4-1.7-2.6c-0.3-0.4-0.9-1.6-1.4-2.4
			C-4.2-46.5-4.3-54.7-4.3-55c0-0.9,0-1.7,0.1-2.6c0.1-0.4,0.2-1.3,0.6-2.4C-3-61.8-1.9-64.1-1.1-64z"/>
		<path class="st16" d="M58.7-63.2v-16.7h4.6v6.8h4v-6.8h4.6v16.7h-4.6v-7.4h-4v7.4H58.7z"/>
		<path class="st16" d="M75.5-63.2v-16.7H80v16.7H75.5z"/>
		<path class="st16" d="M83.4-63.2l0.4-16.7h4.9l2.8,10.5l3-10.5h4.7l0.4,16.7h-3.3l-0.4-11.3L93-63.2h-2.9l-3-11.4l-0.3,11.4H83.4z
			"/>
		<path class="st16" d="M102.9-63.2v-16.7h9.5v2.3h-4.9v4.5h4.2v2.3h-4.2v7.5L102.9-63.2z"/>
		<path class="st16" d="M114.7-63.2v-16.7h4.6v14.4h5.3v2.3L114.7-63.2z"/>
		<path class="st16" d="M125.7-63.2l4.4-16.7h5.1l4.3,16.7h-4.2l-0.8-3.7h-3.6l-0.9,3.7H125.7z M131.3-69h2.7l-1.4-6.7L131.3-69z"/>
		<path class="st16" d="M140.3-63.2l4.5-8.9l-4.3-7.8h4.3l2.7,4.8l2.3-4.8h3.9l-4.1,8.5l4.5,8.1h-4.3l-3-5.2l-2.6,5.2H140.3z"/>
		<g>
			<path class="st17" d="M60.1-60.6v6.7h-1.4v-6.7H60.1z"/>
			<path class="st17" d="M66.1-60.6v6.7h-1.3L62.6-58v4.2h-1.3v-6.7h1.3l2.2,4.2v-4.2H66.1z"/>
			<path class="st17" d="M68.6-60.6v6.7h-1.4v-6.7H68.6z M71-60.6v1.1h-2.8v-1.1H71z M70.8-57.7v1.1h-2.5v-1.1H70.8z"/>
			<path class="st17" d="M76.6-57.7v1.1c0,0.4,0,0.8-0.2,1.2c-0.1,0.3-0.3,0.6-0.5,0.9c-0.2,0.2-0.5,0.4-0.8,0.5
				c-0.3,0.1-0.7,0.2-1,0.2c-0.3,0-0.7-0.1-1-0.2c-0.3-0.1-0.6-0.3-0.8-0.5c-0.2-0.3-0.4-0.6-0.5-0.9c-0.1-0.4-0.2-0.8-0.2-1.2v-1.1
				c0-0.4,0.1-0.9,0.2-1.3c0.1-0.3,0.3-0.6,0.5-0.9c0.2-0.2,0.5-0.4,0.8-0.6c0.3-0.1,0.7-0.2,1-0.2c0.3,0,0.7,0.1,1,0.2
				c0.3,0.1,0.6,0.3,0.8,0.6c0.2,0.3,0.4,0.6,0.5,0.9C76.6-58.6,76.6-58.2,76.6-57.7z M75.3-56.6v-1.1c0-0.3,0-0.5-0.1-0.8
				c0-0.2-0.1-0.4-0.2-0.6c-0.1-0.1-0.2-0.2-0.3-0.3c-0.1-0.1-0.3-0.1-0.5-0.1c-0.2,0-0.3,0-0.5,0.1c-0.1,0.1-0.3,0.2-0.3,0.3
				c-0.1,0.2-0.2,0.4-0.2,0.6c0,0.3-0.1,0.5-0.1,0.8v1.1c0,0.3,0,0.5,0.1,0.8c0,0.2,0.1,0.4,0.2,0.5c0.1,0.1,0.2,0.2,0.3,0.3
				c0.1,0.1,0.3,0.1,0.5,0.1c0.2,0,0.3,0,0.5-0.1c0.1-0.1,0.3-0.2,0.3-0.3c0.1-0.2,0.2-0.3,0.2-0.5C75.3-56.1,75.3-56.3,75.3-56.6z"
				/>
			<path class="st17" d="M77.7-60.6h2.2c0.4,0,0.8,0.1,1.2,0.2c0.3,0.2,0.6,0.4,0.7,0.7c0.2,0.3,0.3,0.7,0.3,1.1
				c0,0.3,0,0.6-0.2,0.9c-0.1,0.2-0.2,0.5-0.4,0.6c-0.2,0.2-0.4,0.3-0.7,0.4l-0.4,0.2h-1.8v-1.1h1.2c0.2,0,0.3,0,0.5-0.1
				c0.1-0.1,0.2-0.2,0.3-0.3c0.1-0.2,0.1-0.3,0.1-0.5c0-0.2,0-0.4-0.1-0.5c0-0.1-0.1-0.3-0.3-0.4c-0.1-0.1-0.3-0.1-0.5-0.1H79v5.6
				h-1.4V-60.6z M80.8-53.9l-1.3-3h1.4l1.3,2.9v0.1L80.8-53.9z"/>
			<path class="st17" d="M83-60.6h1.2l0.2,4.4v2.3H83V-60.6z M83.5-60.6h1.2l1.4,4.6l1.4-4.6h1.1l-2,6.7h-1L83.5-60.6z M88-60.6h1.2
				v6.7h-1.3v-2.3L88-60.6z"/>
			<path class="st17" d="M92.9-59.4l-1.5,5.5H90l2.1-6.7H93L92.9-59.4z M94.1-56.4v1.1H91v-1.1H94.1z M94.1-53.9l-1.5-5.5l-0.1-1.2
				h0.9l2.2,6.7L94.1-53.9z"/>
			<path class="st17" d="M100.1-60.6v1.1h-4.8v-1.1H100.1z M98.3-60.6v6.7H97v-6.7H98.3z"/>
			<path class="st17" d="M102.3-60.6v6.7h-1.4v-6.7H102.3z"/>
			<path class="st17" d="M108.3-57.7v1.1c0,0.4,0,0.8-0.2,1.2c-0.1,0.3-0.3,0.6-0.5,0.9c-0.2,0.2-0.5,0.4-0.8,0.5
				c-0.3,0.1-0.7,0.2-1,0.2c-0.3,0-0.7-0.1-1-0.2c-0.3-0.1-0.6-0.3-0.8-0.5c-0.2-0.3-0.4-0.6-0.5-0.9c-0.1-0.4-0.2-0.8-0.2-1.2v-1.1
				c0-0.4,0.1-0.9,0.2-1.3c0.1-0.3,0.3-0.6,0.5-0.9c0.2-0.2,0.5-0.4,0.8-0.6c0.3-0.1,0.7-0.2,1-0.2c0.3,0,0.7,0.1,1,0.2
				c0.3,0.1,0.6,0.3,0.8,0.6c0.2,0.3,0.4,0.6,0.5,0.9C108.2-58.6,108.3-58.2,108.3-57.7z M106.9-56.6v-1.1c0-0.3,0-0.5-0.1-0.8
				c0-0.2-0.1-0.4-0.2-0.6c-0.1-0.1-0.2-0.2-0.3-0.3c-0.1-0.1-0.3-0.1-0.5-0.2c-0.2,0-0.3,0-0.5,0.1c-0.1,0.1-0.3,0.2-0.3,0.3
				c-0.1,0.2-0.2,0.4-0.2,0.6c0,0.3-0.1,0.5-0.1,0.8v1.1c0,0.3,0,0.5,0.1,0.8c0,0.2,0.1,0.4,0.2,0.5c0.1,0.1,0.2,0.2,0.3,0.3
				c0.1,0.1,0.3,0.2,0.5,0.2c0.2,0,0.3,0,0.5-0.1c0.1-0.1,0.3-0.2,0.3-0.3c0.1-0.2,0.2-0.3,0.2-0.5
				C106.9-56.1,106.9-56.3,106.9-56.6z"/>
			<path class="st17" d="M114.1-60.6v6.7h-1.3l-2.2-4.2v4.2h-1.3v-6.7h1.3l2.2,4.2v-4.2H114.1z"/>
			<path class="st17" d="M121.6-60.6v1.1h-4.8v-1.1H121.6z M119.9-60.6v6.7h-1.4v-6.7H119.9z"/>
			<path class="st17" d="M123.8-60.6v6.7h-1.4v-6.7H123.8z M126.4-60.6v1.1h-3v-1.1H126.4z M126-57.8v1.1h-2.6v-1.1H126z M126.4-55
				v1.1h-3V-55H126.4z"/>
			<path class="st17" d="M130.4-56.1h1.4c0,0.4-0.1,0.9-0.3,1.3c-0.2,0.3-0.5,0.6-0.8,0.8c-0.4,0.2-0.8,0.3-1.3,0.3
				c-0.3,0-0.7-0.1-1-0.2c-0.3-0.1-0.6-0.3-0.8-0.5c-0.2-0.3-0.4-0.6-0.5-0.9c-0.1-0.4-0.2-0.8-0.2-1.2v-1.1c0-0.4,0-0.8,0.2-1.2
				c0.1-0.3,0.3-0.6,0.5-0.9c0.2-0.2,0.5-0.4,0.8-0.5c0.3-0.1,0.7-0.2,1-0.2c0.4,0,0.9,0.1,1.3,0.3c0.3,0.2,0.6,0.5,0.8,0.8
				c0.2,0.4,0.3,0.8,0.3,1.3h-1.4c0-0.3,0-0.5-0.1-0.8c0-0.2-0.2-0.3-0.3-0.4c-0.2-0.1-0.4-0.1-0.6-0.1c-0.2,0-0.3,0-0.5,0.1
				c-0.1,0.1-0.3,0.2-0.3,0.3c-0.1,0.2-0.2,0.4-0.2,0.5c0,0.3-0.1,0.5-0.1,0.8v1.2c0,0.3,0,0.5,0.1,0.8c0,0.2,0.1,0.4,0.2,0.5
				c0.1,0.1,0.2,0.2,0.3,0.3c0.2,0.1,0.3,0.1,0.5,0.1c0.2,0,0.4,0,0.6-0.1c0.2-0.1,0.3-0.2,0.3-0.4
				C130.4-55.7,130.4-55.9,130.4-56.1z"/>
			<path class="st17" d="M134-60.6v6.7h-1.4v-6.7H134z M136.4-57.8v1.1h-2.8v-1.1H136.4z M137.4-60.6v6.7h-1.4v-6.7H137.4z"/>
			<path class="st17" d="M143.4-60.6v6.7h-1.3l-2.2-4.2v4.2h-1.3v-6.7h1.3l2.1,4.2v-4.2H143.4z"/>
			<path class="st17" d="M149.3-57.7v1.1c0,0.4-0.1,0.8-0.2,1.2c-0.1,0.3-0.3,0.6-0.5,0.9c-0.2,0.2-0.5,0.4-0.8,0.5
				c-0.3,0.1-0.7,0.2-1,0.2c-0.3,0-0.7-0.1-1-0.2c-0.3-0.1-0.6-0.3-0.8-0.5c-0.2-0.3-0.4-0.6-0.5-0.9c-0.1-0.4-0.2-0.8-0.2-1.2v-1.1
				c0-0.4,0.1-0.9,0.2-1.3c0.1-0.3,0.3-0.6,0.5-0.9c0.2-0.2,0.5-0.4,0.8-0.6c0.3-0.1,0.7-0.2,1-0.2c0.3,0,0.7,0.1,1,0.2
				c0.3,0.1,0.6,0.3,0.8,0.6c0.2,0.3,0.4,0.6,0.5,0.9C149.2-58.6,149.3-58.2,149.3-57.7z M147.9-56.6v-1.1c0-0.3,0-0.5-0.1-0.8
				c0-0.2-0.1-0.4-0.2-0.6c-0.1-0.1-0.2-0.2-0.3-0.3c-0.1-0.1-0.3-0.1-0.5-0.1c-0.2,0-0.3,0-0.5,0.1c-0.1,0.1-0.3,0.2-0.3,0.3
				c-0.1,0.2-0.2,0.4-0.2,0.6c0,0.3-0.1,0.5-0.1,0.8v1.1c0,0.3,0,0.5,0.1,0.8c0,0.2,0.1,0.4,0.2,0.5c0.1,0.1,0.2,0.2,0.3,0.3
				c0.1,0.1,0.3,0.1,0.5,0.1c0.2,0,0.3,0,0.5-0.1c0.1-0.1,0.3-0.2,0.3-0.3c0.1-0.2,0.2-0.3,0.2-0.5
				C147.9-56.1,147.9-56.3,147.9-56.6z"/>
			<path class="st17" d="M151.7-60.6v6.7h-1.4v-6.7H151.7z M154.1-55v1.1h-2.8V-55H154.1z"/>
			<path class="st17" d="M159.5-57.7v1.1c0,0.4-0.1,0.8-0.2,1.2c-0.1,0.3-0.3,0.6-0.5,0.9c-0.2,0.2-0.5,0.4-0.8,0.5
				c-0.3,0.1-0.7,0.2-1,0.2c-0.3,0-0.7-0.1-1-0.2c-0.3-0.1-0.6-0.3-0.8-0.5c-0.2-0.3-0.4-0.6-0.5-0.9c-0.1-0.4-0.2-0.8-0.2-1.2v-1.1
				c0-0.4,0.1-0.9,0.2-1.3c0.1-0.3,0.3-0.6,0.5-0.9c0.2-0.2,0.5-0.4,0.8-0.6c0.3-0.1,0.7-0.2,1-0.2c0.3,0,0.7,0.1,1,0.2
				c0.3,0.1,0.6,0.3,0.8,0.6c0.2,0.3,0.4,0.6,0.5,0.9C159.4-58.6,159.5-58.2,159.5-57.7z M158.1-56.6v-1.1c0-0.3,0-0.5-0.1-0.8
				c0-0.2-0.1-0.4-0.2-0.6c-0.1-0.1-0.2-0.2-0.3-0.3c-0.1-0.1-0.3-0.1-0.5-0.1c-0.2,0-0.3,0-0.5,0.1c-0.1,0.1-0.3,0.2-0.3,0.3
				c-0.1,0.2-0.2,0.4-0.2,0.6c-0.1,0.3-0.1,0.5-0.1,0.8v1.1c0,0.3,0,0.5,0.1,0.8c0,0.2,0.1,0.4,0.2,0.5c0.1,0.1,0.2,0.2,0.3,0.3
				c0.1,0.1,0.3,0.1,0.5,0.1c0.2,0,0.3,0,0.5-0.1c0.1-0.1,0.3-0.2,0.3-0.3c0.1-0.2,0.2-0.3,0.2-0.5
				C158.1-56.1,158.1-56.3,158.1-56.6z"/>
			<path class="st17" d="M165.1-57.4v2.8c-0.1,0.1-0.3,0.2-0.4,0.4c-0.2,0.1-0.5,0.3-0.7,0.4c-0.4,0.1-0.7,0.2-1.1,0.1
				c-0.4,0-0.7-0.1-1-0.2c-0.3-0.1-0.6-0.3-0.8-0.5c-0.2-0.3-0.4-0.6-0.5-0.9c-0.1-0.4-0.2-0.8-0.2-1.3v-1.1c0-0.4,0.1-0.9,0.2-1.3
				c0.1-0.3,0.3-0.6,0.5-0.9c0.2-0.2,0.5-0.4,0.8-0.5c0.3-0.1,0.7-0.2,1-0.2c0.4,0,0.9,0.1,1.3,0.2c0.3,0.2,0.6,0.5,0.8,0.8
				c0.2,0.4,0.3,0.8,0.3,1.2h-1.3c0-0.2-0.1-0.5-0.1-0.7c-0.1-0.1-0.2-0.3-0.3-0.3c-0.2-0.1-0.4-0.1-0.6-0.1c-0.2,0-0.3,0-0.5,0.1
				c-0.1,0.1-0.3,0.2-0.3,0.3c-0.1,0.2-0.2,0.3-0.2,0.5c0,0.3-0.1,0.5-0.1,0.8v1.1c0,0.3,0,0.5,0.1,0.8c0,0.2,0.1,0.4,0.2,0.5
				c0.1,0.1,0.2,0.2,0.4,0.3c0.2,0.1,0.4,0.1,0.5,0.1c0.1,0,0.3,0,0.4,0c0.1,0,0.2-0.1,0.2-0.1c0,0,0.1-0.1,0.2-0.1v-1.2h-0.9v-1
				L165.1-57.4z"/>
			<path class="st17" d="M167.5-60.6v6.7h-1.4v-6.7H167.5z"/>
			<path class="st17" d="M170.1-60.6v6.7h-1.4v-6.7H170.1z M172.7-60.6v1.1h-3v-1.1H172.7z M172.3-57.8v1.1h-2.6v-1.1H172.3z
				 M172.7-55v1.1h-3V-55H172.7z"/>
			<path class="st17" d="M176.4-55.6c0-0.1,0-0.2,0-0.3c0-0.1-0.1-0.2-0.1-0.3c-0.1-0.1-0.2-0.2-0.3-0.2c-0.2-0.1-0.3-0.2-0.5-0.3
				c-0.3-0.1-0.5-0.2-0.7-0.3c-0.2-0.1-0.4-0.3-0.6-0.4c-0.2-0.2-0.3-0.3-0.4-0.6c-0.1-0.2-0.2-0.5-0.2-0.8c0-0.3,0-0.5,0.2-0.8
				c0.1-0.2,0.3-0.4,0.4-0.6c0.2-0.2,0.4-0.3,0.7-0.4c0.3-0.1,0.6-0.1,0.9-0.1c0.4,0,0.8,0.1,1.1,0.3c0.3,0.2,0.6,0.4,0.8,0.7
				c0.2,0.3,0.3,0.7,0.3,1.1h-1.4c0-0.2,0-0.3-0.1-0.5c0-0.1-0.1-0.3-0.3-0.3c-0.1-0.1-0.3-0.1-0.5-0.1c-0.2,0-0.3,0-0.4,0.1
				c-0.1,0.1-0.2,0.2-0.3,0.3c-0.1,0.1-0.1,0.3-0.1,0.4c0,0.1,0,0.2,0.1,0.3c0.1,0.1,0.1,0.2,0.2,0.2c0.1,0.1,0.2,0.1,0.3,0.2
				l0.4,0.2c0.3,0.1,0.6,0.2,0.9,0.4c0.2,0.1,0.4,0.3,0.6,0.5c0.2,0.2,0.3,0.4,0.4,0.6c0.1,0.3,0.1,0.5,0.1,0.8c0,0.3,0,0.5-0.1,0.8
				c-0.1,0.2-0.2,0.4-0.4,0.6c-0.2,0.2-0.4,0.3-0.7,0.4c-0.3,0.1-0.6,0.1-0.9,0.1c-0.3,0-0.6,0-0.9-0.1c-0.3-0.1-0.5-0.2-0.8-0.4
				c-0.2-0.2-0.4-0.4-0.5-0.7c-0.1-0.3-0.2-0.6-0.2-1h1.4c0,0.2,0,0.3,0.1,0.5c0,0.1,0.1,0.2,0.2,0.3c0.1,0.1,0.2,0.1,0.3,0.2
				c0.1,0,0.3,0.1,0.4,0.1c0.2,0,0.3,0,0.4-0.1c0.1-0.1,0.2-0.2,0.2-0.3C176.4-55.4,176.4-55.5,176.4-55.6z"/>
		</g>
	</g>
	<linearGradient id="SVGID_14_" gradientUnits="userSpaceOnUse" x1="17.3599" y1="-71.4291" x2="26.5943" y2="-71.1067">
		<stop  offset="0.3071" style="stop-color:#1B7EC2"/>
		<stop  offset="0.4918" style="stop-color:#166DB5"/>
	</linearGradient>
	<polygon class="st18" points="17.9,-64.9 25.6,-69.5 24.3,-77.7 17.4,-72.9 	"/>
	
		<linearGradient id="SVGID_15_" gradientUnits="userSpaceOnUse" x1="27.0256" y1="181.8917" x2="27.0256" y2="138.5048" gradientTransform="matrix(1 0 0 -1 0 80)">
		<stop  offset="0.4087" style="stop-color:#239AD9"/>
		<stop  offset="0.5961" style="stop-color:#166DB5"/>
	</linearGradient>
	<path class="st19" d="M22.5-59.2L22-95.1v-0.1c0.2-1.2,0.7-2.3,1.4-3.3c0.7-1,1.7-1.7,2.8-2.3c1.6-0.8,3.3-1.2,5-1.2
		c0.1,0,0.2,0,0.3,0c0.1,0,0.2,0.1,0.3,0.2c0.1,0.1,0.1,0.2,0.2,0.2c0,0.1,0.1,0.2,0.1,0.3c-0.1,11.9-0.2,23.8-0.2,35.7
		c0,0.1,0,0.2-0.1,0.3c0,0.1-0.1,0.2-0.2,0.2l-7.6,6.3c-0.1,0.1-0.3,0.2-0.4,0.2c-0.2,0-0.3,0-0.4,0s-0.3-0.1-0.4-0.3
		C22.6-58.9,22.6-59.1,22.5-59.2z"/>
	
		<linearGradient id="SVGID_16_" gradientUnits="userSpaceOnUse" x1="13.316" y1="171.0079" x2="13.316" y2="128.421" gradientTransform="matrix(1 0 0 -1 0 80)">
		<stop  offset="0.2572" style="stop-color:#239AD9"/>
		<stop  offset="0.5843" style="stop-color:#166DB5"/>
	</linearGradient>
	<path class="st20" d="M8.3-49.1L7.7-84.3v-0.1c0.2-1.2,0.7-2.3,1.6-3.2c0.8-0.9,1.9-1.7,3.1-2.2c1.7-0.8,3.6-1.1,5.6-1.1
		c0.1,0,0.2,0,0.3,0c0.1,0,0.2,0.1,0.3,0.1c0.1,0.1,0.2,0.1,0.2,0.2c0.1,0.1,0.1,0.2,0.1,0.3c-0.1,11.7-0.2,23.4-0.3,35
		c0,0.1,0,0.2-0.1,0.3c-0.1,0.1-0.1,0.2-0.2,0.2l-8.4,6.1c-0.1,0.1-0.3,0.2-0.5,0.2c-0.2,0-0.3,0-0.5,0c-0.2-0.1-0.3-0.1-0.4-0.2
		C8.4-48.8,8.3-49,8.3-49.1z"/>
	<linearGradient id="SVGID_17_" gradientUnits="userSpaceOnUse" x1="3.8248" y1="-60.4255" x2="43.6749" y2="-60.4255">
		<stop  offset="0" style="stop-color:#F2B620"/>
		<stop  offset="1" style="stop-color:#F2B620"/>
	</linearGradient>
	<path class="st21" d="M11.9-29.5c-0.3-0.3-0.5-0.6-0.7-0.9c-0.2-0.5-0.4-1-0.5-1.5c-0.2-0.7-0.2-1.5-0.2-2.2c0-1.2,0.2-2.4,0.6-3.6
		c1-2.9,3.5-4.8,4.9-5.8c0.7-0.5,1.5-1.1,2.7-2.1c0.2-0.2,1-0.9,1.6-1.3c1.7-1.3,2.5-1.7,3.9-2.8c0,0,0.7-0.5,1.6-1.2
		c2.1-1.6,4.3-3.5,5.5-4.6c5.1-4.5,4.6-3.9,5.3-4.7c1.6-1.7,3-3.4,4.3-5.3c1.2-1.6,2.3-3.2,3.1-5c1-1.9,1.5-4,1.5-6.2
		c0-2.5-0.8-4.9-2.1-7c-0.9-1.4-1.9-2.6-3.1-3.8c-0.8-0.8-1.6-1.6-2.5-2.3c-2.3-1.7-4.8-2.7-4.9-2.6c-0.1,0.1,0.6,0.4,1.4,1.1
		c1,0.9,1.7,2.1,2.1,3.3c0.8,2.2,1,4.5,0.8,6.8c-0.2,2-0.6,3.9-1.3,5.8c-0.2,0.7-0.5,1.7-1,2.8c0,0-1,2.2-2.5,4.2
		c-1.4,1.8-4,4.4-11.6,10.1c-1.6,1.2-6.9,5.1-9.1,6.7c-0.9,0.6-1.1,0.8-1.8,1.4c-0.8,0.5-1.5,1.1-2.1,1.7c-0.9,0.8-1.7,1.7-2.4,2.7
		c-1,1.5-3.1,7-0.1,11.6c1.2,1.7,2.8,3.2,4.7,4.2c0.9,0.6,1.9,1.1,3,1.5C12.7-28.8,12.3-29.2,11.9-29.5z"/>
	<linearGradient id="SVGID_18_" gradientUnits="userSpaceOnUse" x1="6.4159" y1="-33.361" x2="44.0985" y2="-85.2267">
		<stop  offset="8.291457e-02" style="stop-color:#C69D33"/>
		<stop  offset="0.2047" style="stop-color:#C89E32"/>
		<stop  offset="0.2485" style="stop-color:#CFA22F"/>
		<stop  offset="0.2798" style="stop-color:#DAA92A"/>
		<stop  offset="0.3049" style="stop-color:#EBB223"/>
		<stop  offset="0.3125" style="stop-color:#F2B620"/>
		<stop  offset="0.677" style="stop-color:#F2B620"/>
		<stop  offset="0.7991" style="stop-color:#C69D33"/>
	</linearGradient>
	<path class="st22" d="M12.5-49.8c-1,1.4-2.3,3.3-3.4,5.6c0,0-1,2.1-1.2,4.1c-0.1,0.9-0.1,1.7,0,2.6c0.1,0.9,0.4,1.8,0.7,2.7
		c0.5,1.3,1.2,2.6,2,3.8c0.4,0.7,0.9,1.4,1.5,2c0,0-0.6-0.9-0.6-0.9c-0.3-0.5-0.5-1-0.6-1.6c-0.2-0.8-0.2-1.6-0.2-2.4
		c0-0.4,0.1-0.8,0.1-1.2c0.1-0.9,0.4-1.7,0.7-2.6c0,0,0.1-0.3,0.2-0.5c0.8-1.5,1.8-2.8,3.1-3.9c1.3-1.2,2.6-2.1,4-3.3
		c0.1-0.1,0.5-0.5,1.1-0.9c0.2-0.2,0.5-0.4,1-0.8c2.6-2,2-1.4,5.4-4c1.8-1.3,3.4-2.8,5-4.3c2.1-2.1,2.6-3.5,4.2-6.8
		c1.3-2.7,2.2-5.4,2.9-8.3c0.6-2.6,0.9-5.3,1-8c0-0.7,0-1.5-0.1-2.2c-0.1-1-0.3-2-0.7-3c-0.2-0.5-0.5-1-0.7-1.5
		c-0.4-0.8-0.8-1.5-1.2-2.2c0.1,0.3,0.2,0.7,0.3,1.2c0.2,0.7,0.3,1.7,0.4,2.8c0,1.1,0,1.9-0.1,2.6c-0.1,1.3-0.4,2.3-0.5,3
		c-0.1,0.3-0.4,1.6-0.9,3.2c-0.2,0.7-0.5,1.5-1,2.5c-0.8,1.6-1.5,2.7-1.8,3.1c-0.6,0.9-1.1,1.5-1.5,1.9c-0.8,0.9-1.5,1.6-2.1,2.1
		c-1.1,1-2,1.8-2.7,2.4c-0.3,0.2-0.5,0.4-0.7,0.6c-1.4,1.1-2.4,1.9-3.9,2.9c-0.7,0.5-2.2,1.6-2.5,1.9c0,0-0.3,0.2-0.6,0.4
		c-0.1,0-0.1,0.1-0.2,0.1C16-54.5,14.3-52.2,12.5-49.8z"/>
</g>
</svg>
